<svg width="399" height="160" viewBox="0 0 399 160" fill="none" xmlns="http://www.w3.org/2000/svg">
<path d="M100.61 119.82C109.84 119.82 120.66 106.45 125.75 97.55L130.21 100.09C121.3 115.36 90.75 158.96 71.02 158.96C60.52 158.96 55.75 151.96 55.75 142.1C55.75 132.24 60.21 121.1 64.34 111.87L114.3 0.179993H141.98L102.52 88.95C99.34 96.27 94.88 103.91 94.88 112.5C94.88 116 96.47 119.82 100.61 119.82Z" fill="#E3E16A"/>
<path d="M169.33 61.59C164.24 73.04 148.97 102 148.97 113.14C148.97 116.64 151.51 119.82 155.33 119.82C163.6 119.82 174.74 107.09 180.15 97.55L184.6 100.09C176.01 114.73 144.83 159.27 126.05 159.27C117.78 159.27 110.14 153.54 110.14 142.09C110.14 133.5 113.32 125.23 116.82 117.27L141.32 61.59H169.32H169.33Z" fill="#E3E16A"/>
<path d="M230.1 159.28C220.56 159.28 215.14 150.37 215.14 141.46C215.14 119.19 239.64 96.91 239.64 80.69C239.64 77.51 238.37 74.33 234.55 74.33C221.5 74.33 207.82 97.56 203.05 108.06L181.1 156.11H153.42L196.06 61.61H224.06L215.47 79.75C223.11 69.57 238.7 57.48 252.06 57.48C260.97 57.48 267.02 61.62 267.02 70.84C267.02 87.39 253.34 100.75 253.34 112.52C253.34 116.34 255.25 119.84 259.7 119.84C269.24 119.84 280.06 105.52 284.52 97.57L288.98 100.11C279.12 116.02 251.75 159.29 230.11 159.29" fill="#E3E16A"/>
<path d="M331.61 122.69C324.61 136.69 308.7 159.28 291.2 159.28C278.15 159.28 271.79 148.14 271.79 136.05C271.79 105.19 304.25 59.05 337.34 59.05C344.66 59.05 351.02 62.87 351.66 70.51L356.12 61.6H383.17C377.76 72.74 362.8 102.01 362.8 113.15C362.8 116.65 365.67 119.83 369.16 119.83C377.75 119.83 387.93 107.1 393.66 97.56L398.12 100.1C390.16 113.47 358.98 159.28 340.84 159.28C322.7 159.28 327.79 133.51 332.25 123.01L331.61 122.69ZM339.56 67C323.65 67 308.38 96.27 308.38 109.96C308.38 114.41 310.92 120.78 316.34 120.78C332.25 120.78 346.89 90.55 346.89 76.87C346.89 72.42 344.66 67.01 339.57 67.01" fill="#E3E16A"/>
<path d="M269.88 31.19C251.43 31.19 247.29 20.37 230.42 20.37C220.24 20.37 212.29 25.14 206.24 33.09L203.38 30.55C212.93 17.19 224.06 1.91 239.97 1.91C258.42 1.91 264.47 12.41 281.33 12.41C291.19 12.41 299.47 7.96 305.19 0L308.37 2.22C299.14 15.59 285.78 31.18 269.87 31.18" fill="#E3E16A"/>
<path d="M21.31 61.37C25.69 61.37 30.83 54.54 33.24 49.98L35.35 51.28C31.12 59.09 16.62 81.38 7.25 81.38C2.27 81.38 0 77.8 0 72.76C0 67.72 2.11999 62.02 4.07999 57.3L27.79 0.200012H40.93L22.2 45.59C20.69 49.33 18.57 53.23 18.57 57.63C18.57 59.42 19.32 61.37 21.29 61.37" fill="#E3E16A"/>
<path d="M55.59 62.83C52.27 69.99 44.71 81.54 36.41 81.54C30.22 81.54 27.2 75.85 27.2 69.66C27.2 53.88 42.6 30.29 58.31 30.29C61.79 30.29 64.8 32.24 65.11 36.14L67.22 31.58H80.06C77.49 37.27 70.39 52.24 70.39 57.93C70.39 59.72 71.75 61.35 73.41 61.35C77.49 61.35 82.32 54.84 85.04 49.96L87.15 51.26C83.37 58.09 68.57 81.52 59.96 81.52C51.35 81.52 53.77 68.34 55.88 62.98L55.58 62.82L55.59 62.83ZM59.37 34.36C51.82 34.36 44.57 49.33 44.57 56.33C44.57 58.61 45.78 61.86 48.35 61.86C55.9 61.86 62.85 46.41 62.85 39.41C62.85 37.13 61.79 34.37 59.38 34.37" fill="#E3E16A"/>
<path d="M169.95 0.179993C178.93 0.179993 186.46 7.71 186.46 16.69C186.46 25.67 178.93 32.91 169.95 32.91C160.97 32.91 153.73 25.67 153.73 16.69C153.73 7.71 160.97 0.179993 169.95 0.179993Z" fill="#E3E16A"/>
</svg>
