<svg width="28" height="24" viewBox="0 0 28 24" fill="none" xmlns="http://www.w3.org/2000/svg">
<path d="M8.11176 18.8262C7.66176 18.4862 7.42176 18.3062 7.17176 18.1262C2.30176 14.5162 2.37176 8.22616 7.33176 4.74616C11.9418 1.50616 19.1518 1.81616 23.3118 5.43616C27.2218 8.84616 27.2618 14.0762 23.3618 17.5062C20.7718 19.7862 17.6718 20.6662 14.2718 20.5262C13.3918 20.4962 12.6818 20.6462 11.9518 21.1862C10.6918 22.1162 9.23176 22.5662 7.64176 22.3962C7.19176 22.3462 6.70175 22.2362 6.31175 22.0062C5.52175 21.5562 5.58176 21.2262 6.26176 20.6662C6.91176 20.1362 7.46176 19.4862 8.11176 18.8262ZM7.24175 21.3962C9.20175 21.6362 10.7318 20.8762 12.1918 19.8562C12.5018 19.6362 12.9718 19.5162 13.3518 19.5362C16.4218 19.7062 19.3218 19.2162 21.8918 17.3962C26.3818 14.2162 26.3518 8.67616 21.8318 5.52616C17.7718 2.69616 11.5218 2.79616 7.58176 5.78616C5.93176 7.03616 4.75176 8.60616 4.53176 10.7362C4.21176 13.8662 5.77176 16.0462 8.28176 17.6362C9.07176 18.1362 9.12176 18.6562 8.71176 19.3162C8.29176 19.9962 7.79175 20.6262 7.24175 21.3862V21.3962Z" fill="#E3E16A" stroke="#E3E16A" stroke-width="2.23" stroke-miterlimit="10"/>
<path d="M5.33176 17.1061C4.88176 16.7661 4.64176 16.5861 4.39176 16.4061C-0.478244 12.7961 -0.40824 6.50613 4.55176 3.02613C9.16176 -0.213872 16.3718 0.096127 20.5318 3.71613C24.4418 7.12613 24.4818 12.3561 20.5818 15.7861C17.9918 18.0661 14.8918 18.9461 11.4918 18.8061C10.6118 18.7761 9.90175 18.9261 9.17175 19.4661C7.91175 20.3961 6.45176 20.8461 4.86176 20.6761C4.41176 20.6261 3.92176 20.5161 3.53176 20.2861C2.74176 19.8361 2.80176 19.5061 3.48176 18.9461C4.13176 18.4161 4.68176 17.7661 5.33176 17.1061ZM4.46176 19.6861C6.42176 19.9261 7.95176 19.1661 9.41176 18.1461C9.72176 17.9261 10.1918 17.8061 10.5718 17.8261C13.6418 17.9961 16.5418 17.5061 19.1118 15.6861C23.6018 12.5061 23.5718 6.96613 19.0518 3.81613C14.9918 0.986127 8.74176 1.08613 4.80176 4.07613C3.15176 5.32613 1.97176 6.89613 1.75176 9.02613C1.43176 12.1561 2.99176 14.3361 5.50176 15.9261C6.29176 16.4261 6.34176 16.9461 5.93176 17.6061C5.51176 18.2861 5.01176 18.9161 4.46176 19.6761V19.6861Z" fill="#2657E8" stroke="#2657E8" stroke-width="1.57" stroke-miterlimit="10"/>
</svg>
