<svg width="377" height="81" viewBox="0 0 377 81" fill="none" xmlns="http://www.w3.org/2000/svg">
<path d="M74.9644 40.01C74.9644 52.2 74.9644 64.39 74.9644 76.58C74.9644 77.01 74.9644 77.45 75.0044 77.88C75.1344 79.09 76.0445 80 77.2645 80.17C78.4345 80.33 79.6044 79.74 80.0044 78.63C80.2144 78.05 80.2645 77.39 80.2645 76.76C80.2745 52.32 80.2745 27.89 80.2645 3.44998C80.2645 3.06998 80.2645 2.69001 80.2345 2.32001C80.0845 0.990007 78.9645 0 77.6245 0C76.2845 0 75.1544 0.979998 75.0044 2.31C74.9544 2.74 74.9644 3.17999 74.9644 3.60999C74.9644 15.74 74.9644 27.87 74.9644 40V40.01ZM21.4344 40.01C21.4344 47.79 21.4344 55.57 21.4344 63.35C21.4344 63.7 21.4244 64.05 21.4544 64.39C21.5544 65.6 22.4944 66.61 23.6344 66.76C24.9744 66.94 26.1744 66.3 26.5644 65.1C26.7344 64.56 26.7344 63.96 26.7344 63.38C26.7344 47.85 26.7344 32.32 26.7344 16.78C26.7344 16.37 26.7344 15.96 26.6844 15.56C26.5344 14.41 25.5744 13.49 24.4144 13.39C22.6244 13.23 21.4344 14.38 21.4344 16.3C21.4344 24.2 21.4344 32.09 21.4344 39.99V40.01ZM112.394 40.18C112.394 32.4 112.394 24.62 112.394 16.84C112.394 16.49 112.404 16.14 112.374 15.8C112.274 14.63 111.374 13.63 110.264 13.45C108.934 13.23 107.724 13.83 107.294 15.03C107.104 15.56 107.094 16.17 107.094 16.74C107.084 32.27 107.094 47.8 107.094 63.34C107.094 63.77 107.094 64.21 107.154 64.64C107.294 65.79 108.274 66.7 109.434 66.8C111.184 66.95 112.404 65.82 112.404 63.97C112.404 56.04 112.404 48.12 112.404 40.19L112.394 40.18ZM85.6844 40.1C85.6844 47.24 85.6844 54.38 85.6844 61.53C85.6844 62.49 85.6644 63.45 85.7144 64.4C85.7744 65.55 86.6345 66.54 87.7045 66.75C88.9445 67 90.1644 66.51 90.6444 65.42C90.8944 64.86 90.9744 64.19 90.9744 63.57C90.9944 47.92 90.9845 32.27 90.9845 16.63C90.9845 16.34 90.9844 16.05 90.9644 15.76C90.8644 14.56 89.9044 13.56 88.7444 13.43C87.3644 13.27 86.1545 13.97 85.8145 15.21C85.6845 15.68 85.6944 16.19 85.6944 16.68C85.6944 24.49 85.6944 32.3 85.6944 40.11L85.6844 40.1ZM69.5544 40.1C69.5544 35.48 69.5544 30.87 69.5544 26.25C69.5544 22.82 69.5645 19.4 69.5345 15.97C69.5245 14.66 68.6244 13.63 67.4444 13.43C66.0844 13.2 64.8744 13.83 64.4444 15.08C64.2744 15.58 64.2645 16.16 64.2645 16.71C64.2645 32.27 64.2645 47.83 64.2645 63.39C64.2645 63.77 64.2644 64.15 64.2944 64.52C64.4144 65.7 65.4044 66.67 66.5844 66.78C68.3744 66.95 69.5544 65.82 69.5544 63.87C69.5544 55.94 69.5544 48.02 69.5544 40.09V40.1ZM58.8644 40.1C58.8644 39.08 58.8644 38.07 58.8644 37.05C58.8644 33.66 58.8844 30.26 58.8544 26.87C58.8344 24.95 57.3344 23.75 55.5644 24.16C54.2844 24.45 53.5644 25.5 53.5644 27.13C53.5644 35.78 53.5644 44.42 53.5644 53.07C53.5644 53.33 53.5644 53.59 53.6044 53.85C53.7644 55.08 54.7644 56.01 56.0044 56.1C57.6644 56.22 58.8644 55.06 58.8644 53.24C58.8844 48.86 58.8644 44.48 58.8644 40.1ZM37.4544 40.1C37.4544 37.31 37.4544 34.53 37.4544 31.74C37.4544 30.06 37.4844 28.37 37.4344 26.69C37.3844 24.99 36.0544 23.9 34.4044 24.11C33.0144 24.29 32.1444 25.39 32.1444 27.04C32.1444 35.74 32.1444 44.45 32.1444 53.15C32.1444 53.35 32.1444 53.56 32.1644 53.76C32.3144 55.07 33.3544 56.04 34.6644 56.1C36.2844 56.17 37.4344 55.02 37.4444 53.23C37.4644 48.85 37.4444 44.47 37.4444 40.09L37.4544 40.1ZM96.3844 40.09C96.3844 42.64 96.3844 45.2 96.3844 47.75C96.3844 49.66 96.3544 51.58 96.4044 53.49C96.4444 55.12 97.6744 56.21 99.2444 56.1C100.764 55.99 101.684 54.87 101.684 53.07C101.684 44.42 101.684 35.78 101.684 27.13C101.684 26.9 101.684 26.66 101.654 26.43C101.504 25.05 100.374 24.06 98.9845 24.08C97.4345 24.1 96.3845 25.21 96.3745 26.94C96.3545 31.32 96.3745 35.7 96.3745 40.08L96.3844 40.09ZM10.7244 40.01C10.7244 43.06 10.7244 46.1 10.7244 49.15C10.7244 50.63 10.6944 52.11 10.7444 53.59C10.7944 55.04 11.9244 56.09 13.3344 56.11C14.7644 56.13 15.8644 55.14 16.0044 53.67C16.0344 53.35 16.0344 53.03 16.0344 52.71C16.0344 44.3 16.0344 35.88 16.0344 27.47C16.0344 27.09 16.0344 26.71 15.9844 26.34C15.8144 25.05 14.8044 24.14 13.5044 24.08C11.8844 24.01 10.7244 25.17 10.7244 26.94C10.7144 31.29 10.7244 35.64 10.7244 40V40.01ZM117.784 40.01C117.784 43.87 117.784 47.73 117.784 51.58C117.784 52.3 117.754 53.03 117.824 53.75C117.964 55.19 119.124 56.16 120.564 56.1C122.124 56.03 123.094 54.89 123.094 53.06C123.094 44.42 123.094 35.77 123.094 27.13C123.094 26.87 123.094 26.61 123.054 26.35C122.854 25.01 121.744 24.07 120.394 24.09C118.814 24.11 117.794 25.24 117.784 27.04C117.764 31.36 117.784 35.68 117.784 40.01ZM0.0144466 40.11C0.0144466 41.82 0.0144466 43.53 0.0144466 45.24C0.0144466 46.87 1.13444 48.08 2.64444 48.1C4.09444 48.13 5.28444 47.04 5.30444 45.47C5.36444 41.88 5.36444 38.28 5.30444 34.69C5.27444 33.11 4.07445 32.04 2.61444 32.09C1.12444 32.14 0.0144444 33.32 0.00444444 34.89C-0.00555556 36.63 0.00444444 38.37 0.00444444 40.11H0.0144466ZM133.814 40.1C133.814 38.36 133.814 36.62 133.814 34.88C133.804 33.31 132.684 32.13 131.194 32.09C129.744 32.06 128.544 33.14 128.524 34.71C128.474 38.3 128.474 41.9 128.524 45.49C128.544 47.05 129.754 48.14 131.194 48.11C132.674 48.07 133.804 46.89 133.814 45.32C133.824 43.58 133.814 41.84 133.814 40.1ZM42.8544 40.1C42.8544 41.84 42.8444 43.58 42.8544 45.32C42.8744 46.92 43.9944 48.09 45.4744 48.1C46.9544 48.11 48.1144 46.96 48.1244 45.36C48.1544 41.85 48.1544 38.34 48.1244 34.82C48.1144 33.21 46.9544 32.07 45.4744 32.08C43.9844 32.1 42.8744 33.26 42.8544 34.86C42.8344 36.6 42.8544 38.34 42.8544 40.08V40.1Z" fill="#D7382D"/>
<path d="M74.9644 40.01C74.9644 27.88 74.9644 15.75 74.9644 3.62C74.9644 3.19 74.9544 2.75001 75.0044 2.32001C75.1544 0.990007 76.2844 0.0100098 77.6244 0.0100098C78.9644 0.0100098 80.0844 1.00999 80.2344 2.32999C80.2744 2.69999 80.2644 3.07999 80.2644 3.45999C80.2644 27.9 80.2644 52.33 80.2644 76.77C80.2644 77.4 80.2144 78.06 80.0044 78.64C79.6044 79.75 78.4344 80.34 77.2644 80.18C76.0444 80.01 75.1344 79.09 75.0044 77.89C74.9544 77.46 74.9644 77.02 74.9644 76.59C74.9644 64.4 74.9644 52.21 74.9644 40.02V40.01Z" fill="#D7382D"/>
<path d="M21.4345 40.0101C21.4345 32.1101 21.4345 24.22 21.4345 16.32C21.4345 14.4 22.6245 13.25 24.4145 13.41C25.5645 13.51 26.5345 14.43 26.6845 15.58C26.7345 15.98 26.7345 16.39 26.7345 16.8C26.7345 32.33 26.7345 47.86 26.7345 63.4C26.7345 63.98 26.7345 64.58 26.5645 65.12C26.1845 66.32 24.9745 66.96 23.6345 66.78C22.4845 66.63 21.5445 65.61 21.4545 64.41C21.4245 64.06 21.4345 63.71 21.4345 63.37C21.4345 55.59 21.4345 47.81 21.4345 40.03V40.0101Z" fill="#D7382D"/>
<path d="M112.394 40.18C112.394 48.11 112.394 56.03 112.394 63.96C112.394 65.81 111.184 66.94 109.424 66.79C108.274 66.69 107.294 65.78 107.144 64.63C107.094 64.2 107.084 63.76 107.084 63.33C107.084 47.8 107.084 32.27 107.084 16.73C107.084 16.16 107.104 15.55 107.284 15.02C107.704 13.83 108.924 13.23 110.254 13.44C111.354 13.62 112.264 14.62 112.364 15.79C112.394 16.14 112.384 16.49 112.384 16.83C112.384 24.61 112.384 32.39 112.384 40.17L112.394 40.18Z" fill="#D7382D"/>
<path d="M85.6845 40.1C85.6845 32.29 85.6845 24.48 85.6845 16.67C85.6845 16.18 85.6845 15.67 85.8045 15.2C86.1445 13.96 87.3545 13.26 88.7345 13.42C89.8945 13.56 90.8545 14.56 90.9545 15.75C90.9745 16.04 90.9745 16.33 90.9745 16.62C90.9745 32.27 90.9745 47.92 90.9645 63.56C90.9645 64.18 90.8845 64.85 90.6345 65.41C90.1545 66.5 88.9445 66.99 87.6945 66.74C86.6345 66.53 85.7645 65.54 85.7045 64.39C85.6545 63.43 85.6745 62.47 85.6745 61.52C85.6745 54.38 85.6745 47.24 85.6745 40.09L85.6845 40.1Z" fill="#D7382D"/>
<path d="M69.5544 40.1C69.5544 48.03 69.5544 55.95 69.5544 63.88C69.5544 65.83 68.3744 66.96 66.5844 66.79C65.4044 66.68 64.4144 65.71 64.2944 64.53C64.2544 64.16 64.2644 63.78 64.2644 63.4C64.2644 47.84 64.2644 32.28 64.2644 16.72C64.2644 16.18 64.2644 15.6 64.4444 15.09C64.8744 13.84 66.0844 13.22 67.4444 13.44C68.6244 13.63 69.5244 14.67 69.5344 15.98C69.5644 19.41 69.5544 22.83 69.5544 26.26C69.5544 30.88 69.5544 35.49 69.5544 40.11V40.1Z" fill="#D7382D"/>
<path d="M58.8644 40.1C58.8644 44.48 58.8744 48.8599 58.8644 53.2399C58.8644 55.0599 57.6644 56.22 56.0044 56.1C54.7644 56.01 53.7744 55.08 53.6044 53.85C53.5744 53.59 53.5645 53.33 53.5645 53.07C53.5645 44.42 53.5645 35.78 53.5645 27.13C53.5645 25.5 54.2845 24.45 55.5645 24.16C57.3345 23.75 58.8344 24.95 58.8544 26.87C58.8844 30.26 58.8644 33.6599 58.8644 37.0499C58.8644 38.0699 58.8644 39.08 58.8644 40.1Z" fill="#D7382D"/>
<path d="M37.4445 40.1C37.4445 44.48 37.4545 48.86 37.4445 53.24C37.4445 55.03 36.2845 56.18 34.6645 56.11C33.3545 56.05 32.3145 55.08 32.1645 53.77C32.1445 53.57 32.1445 53.36 32.1445 53.16C32.1445 44.46 32.1445 35.75 32.1445 27.05C32.1445 25.4 33.0145 24.3 34.4045 24.12C36.0445 23.9 37.3745 25 37.4345 26.7C37.4845 28.38 37.4545 30.06 37.4545 31.75C37.4545 34.54 37.4545 37.32 37.4545 40.11L37.4445 40.1Z" fill="#D7382D"/>
<path d="M96.3844 40.09C96.3844 35.71 96.3744 31.33 96.3844 26.95C96.3844 25.22 97.4444 24.11 98.9944 24.09C100.384 24.07 101.504 25.06 101.664 26.44C101.694 26.67 101.694 26.9 101.694 27.14C101.694 35.79 101.694 44.43 101.694 53.08C101.694 54.88 100.774 56 99.2544 56.11C97.6844 56.22 96.4544 55.14 96.4144 53.5C96.3644 51.59 96.3944 49.67 96.3944 47.76C96.3944 45.21 96.3944 42.65 96.3944 40.1L96.3844 40.09Z" fill="#D7382D"/>
<path d="M10.7244 40.01C10.7244 35.66 10.7244 31.3099 10.7244 26.9499C10.7244 25.1699 11.8844 24.01 13.5044 24.09C14.7944 24.15 15.8144 25.06 15.9844 26.35C16.0344 26.72 16.0344 27.0999 16.0344 27.4799C16.0344 35.8899 16.0344 44.31 16.0344 52.72C16.0344 53.04 16.0344 53.3599 16.0044 53.6799C15.8544 55.1399 14.7644 56.1399 13.3344 56.1199C11.9144 56.0999 10.7944 55.05 10.7444 53.6C10.6944 52.12 10.7244 50.64 10.7244 49.16C10.7244 46.11 10.7244 43.0699 10.7244 40.0199V40.01Z" fill="#D7382D"/>
<path d="M117.784 40.01C117.784 35.69 117.774 31.37 117.784 27.04C117.784 25.24 118.814 24.11 120.394 24.09C121.744 24.07 122.864 25.01 123.054 26.35C123.094 26.61 123.094 26.87 123.094 27.13C123.094 35.77 123.094 44.42 123.094 53.06C123.094 54.88 122.124 56.03 120.564 56.1C119.124 56.16 117.964 55.19 117.824 53.75C117.754 53.03 117.784 52.3 117.784 51.58C117.784 47.72 117.784 43.86 117.784 40.01Z" fill="#D7382D"/>
<path d="M0.0144653 40.1099C0.0144653 38.3699 0.0144653 36.6299 0.0144653 34.8899C0.0144653 33.3199 1.13447 32.13 2.62447 32.09C4.07447 32.05 5.28446 33.12 5.31446 34.69C5.37446 38.28 5.37446 41.88 5.31446 45.47C5.29446 47.05 4.09446 48.13 2.65446 48.1C1.14446 48.07 0.0244598 46.8699 0.0244598 45.2399C0.0244598 43.5299 0.0244598 41.8199 0.0244598 40.1099H0.0144653Z" fill="#D7382D"/>
<path d="M133.814 40.1C133.814 41.84 133.814 43.58 133.814 45.32C133.804 46.89 132.684 48.0699 131.194 48.1099C129.754 48.1499 128.544 47.06 128.524 45.49C128.464 41.9 128.464 38.3 128.524 34.71C128.544 33.15 129.754 32.06 131.194 32.09C132.684 32.12 133.804 33.31 133.814 34.88C133.824 36.62 133.814 38.36 133.814 40.1Z" fill="#D7382D"/>
<path d="M42.8545 40.1C42.8545 38.36 42.8445 36.62 42.8545 34.88C42.8745 33.28 43.9845 32.11 45.4745 32.1C46.9645 32.08 48.1145 33.23 48.1245 34.84C48.1545 38.35 48.1545 41.86 48.1245 45.38C48.1145 46.98 46.9545 48.13 45.4745 48.12C43.9945 48.11 42.8745 46.93 42.8545 45.34C42.8345 43.6 42.8545 41.86 42.8545 40.12V40.1Z" fill="#D7382D"/>
<path d="M180.074 33.86C180.204 41.43 174.724 46.24 165.844 46.4L159.214 46.52L157.744 54.75L150.814 54.87L156.244 25.02L168.274 24.81C175.714 24.68 179.984 28.05 180.084 33.87L180.074 33.86ZM173.114 34.58C173.064 31.69 171.004 30.37 167.514 30.43L162.114 30.53L160.214 40.8899L166.034 40.79C170.584 40.71 173.174 38.54 173.104 34.59L173.114 34.58Z" fill="#D7382D"/>
<path d="M183.364 42.48C183.184 32.32 190.484 24.5 201.454 24.31C210.504 24.15 216.034 29.33 216.174 36.98C216.354 47.14 209.054 54.96 198.084 55.15C189.034 55.31 183.494 50.13 183.364 42.48ZM209.214 37.48C209.134 33.06 206.194 30.09 200.964 30.19C194.254 30.31 190.224 35.69 190.334 41.98C190.414 46.4 193.354 49.37 198.584 49.27C205.304 49.15 209.334 43.77 209.224 37.48H209.214Z" fill="#D7382D"/>
<path d="M224.674 25.0499L237.124 24.8299C246.304 24.6699 251.874 29.3699 252.004 36.9799C252.184 47.4799 244.784 54.4499 233.784 54.6399L219.244 54.9L224.674 25.0499ZM233.894 48.99C241.034 48.86 245.154 43.95 245.044 37.49C244.964 33.07 242.074 30.4 236.464 30.5L230.554 30.6L227.184 49.1099L233.894 48.99Z" fill="#D7382D"/>
<path d="M255.794 42.44C255.614 32.28 262.914 24.46 273.974 24.27C279.244 24.18 283.564 25.97 285.754 29.33L280.854 33.5C279.284 31.27 276.884 30.08 273.614 30.14C266.894 30.26 262.654 35.48 262.764 41.89C262.844 46.4 265.874 49.32 271.224 49.22C274.244 49.17 276.904 48.06 279.064 45.64L283.214 49.7299C280.134 53.4399 275.824 55 270.724 55.09C261.624 55.25 255.924 50.08 255.794 42.43V42.44Z" fill="#D7382D"/>
<path d="M308.014 48.13L294.154 48.37L290.394 54.81L283.044 54.94L301.774 24.85L308.574 24.73L316.404 54.35L309.514 54.47L308.004 48.12L308.014 48.13ZM306.774 42.93L304.064 31.5L297.254 43.1L306.774 42.93Z" fill="#D7382D"/>
<path d="M318.624 52.06L321.334 46.7C324.094 48.65 327.674 49.69 331.204 49.63C334.984 49.56 337.344 48.2 337.304 46.04C337.224 41.28 322.524 44.09 322.354 34.61C322.244 28.49 327.534 24.44 335.774 24.3C339.774 24.23 343.484 25.06 346.104 26.67L343.604 31.99C341.324 30.5 338.424 29.79 335.494 29.84C331.494 29.91 329.184 31.48 329.224 33.61C329.264 38.5 344.014 35.69 344.174 44.83C344.284 50.99 338.914 55.04 330.624 55.19C325.774 55.28 321.164 53.91 318.624 52.09V52.06Z" fill="#D7382D"/>
<path d="M358.634 30.49L349.114 30.66L350.164 25.03L376.094 24.58L375.044 30.21L365.564 30.38L361.144 54.61L354.254 54.7299L358.634 30.5V30.49Z" fill="#D7382D"/>
</svg>
