<svg width="36" height="55" viewBox="0 0 36 55" fill="none" xmlns="http://www.w3.org/2000/svg">
<path d="M0.179995 17.3602C0.0899954 7.80015 7.97999 -0.0398476 17.57 0.000152385C27.05 0.0501524 34.87 7.87015 34.83 17.4101C34.78 27.0401 27.06 34.9101 17.22 34.7901C7.76 34.6801 0.0499954 26.8502 0.179995 17.3502V17.3602ZM28.64 16.4602C28.79 13.9102 27.92 11.5902 26.33 9.60015C23.5 6.06015 19.71 4.63015 15.29 5.50015C8.91 6.75015 5.02999 12.9801 6.63999 19.2601C7.52999 22.7301 9.66 25.1602 12.84 26.7102C13.08 26.8302 13.47 27.0902 13.6 26.8502C13.78 26.5102 13.78 26.0302 13.45 25.6802C13.33 25.5602 13.15 25.4902 13 25.4202C9.37 23.6202 6.75999 19.1602 7.68999 14.6702C8.29999 11.7702 9.8 9.53015 12.27 8.02015C15.46 6.07015 18.83 5.92015 22.14 7.72015C25.55 9.57015 27.4 12.5201 27.43 16.4101C27.45 20.5401 25.5 23.5901 21.81 25.4801C21.36 25.7101 21.04 25.9802 20.99 26.4902C20.97 26.6802 20.82 26.8901 21.03 27.0401C21.19 27.1601 21.36 27.0101 21.52 26.9501C25.5 25.5901 28.89 21.1302 28.65 16.4602H28.64ZM19.64 22.2102C19.64 21.8402 19.64 21.4601 19.64 21.0901C19.62 19.8001 18.67 18.9302 17.3 18.9302C15.93 18.9302 15.03 19.8002 14.99 21.1102C14.95 22.5202 15.05 23.9301 15.18 25.3301C15.28 26.4801 15.43 27.6502 16.09 28.6702C16.76 29.7102 17.87 29.7402 18.56 28.7102C18.83 28.3102 19 27.8501 19.1 27.3701C19.48 25.6601 19.56 23.9301 19.63 22.1901L19.64 22.2102ZM10.23 16.5002C10.12 18.6702 10.98 20.4401 12.52 21.9101C12.73 22.1101 13.04 22.4901 13.28 22.3001C13.57 22.0601 13.36 21.6001 13.25 21.2601C13.21 21.1401 13.09 21.0602 13 20.9602C9.55 17.3002 11.19 11.6001 16.04 10.3701C18.51 9.74015 21.25 10.8002 22.71 12.9302C24.19 15.1102 24.17 18.0201 22.68 20.1201C22.36 20.5701 21.98 20.9602 21.6 21.3602C21.27 21.7002 21.23 22.2201 21.47 22.5101C21.66 22.7401 21.99 22.3201 22.19 22.1301C24.45 20.0801 25.32 17.5802 24.56 14.5702C23.83 11.6402 20.96 9.31015 17.95 9.16015C13.8 8.95015 9.99 12.4102 10.25 16.5002H10.23ZM15 15.0901C15 16.4401 15.97 17.4602 17.3 17.4602C18.61 17.4602 19.62 16.4502 19.63 15.1102C19.63 13.8602 18.61 12.8501 17.3 12.8301C16.09 12.8201 15.01 13.8801 15 15.0801V15.0901Z" fill="#2657E8"/>
<path d="M8.88 46.3402H6.37L5.87 47.5002H4.91L7.17001 42.4802H8.09L10.36 47.5002H9.38L8.88 46.3402ZM8.57 45.6102L7.62 43.4102L6.68 45.6102H8.57Z" fill="#2657E8"/>
<path d="M15.2 44.2702C15.2 45.3702 14.38 46.0602 13.06 46.0602H11.93V47.5102H11V42.4902H13.07C14.39 42.4902 15.21 43.1602 15.21 44.2802L15.2 44.2702ZM14.26 44.2702C14.26 43.6402 13.84 43.2702 13.02 43.2702H11.93V45.2702H13.02C13.84 45.2702 14.26 44.9002 14.26 44.2702Z" fill="#2657E8"/>
<path d="M20.33 44.2702C20.33 45.3702 19.51 46.0602 18.19 46.0602H17.06V47.5102H16.13V42.4902H18.2C19.52 42.4902 20.34 43.1602 20.34 44.2802L20.33 44.2702ZM19.39 44.2702C19.39 43.6402 18.97 43.2702 18.15 43.2702H17.06V45.2702H18.15C18.97 45.2702 19.39 44.9002 19.39 44.2702Z" fill="#2657E8"/>
<path d="M21.26 42.4802H22.19V46.7202H24.82V47.5102H21.26V42.4902V42.4802Z" fill="#2657E8"/>
<path d="M29.32 46.7202V47.5002H25.55V42.4802H29.22V43.2602H26.48V44.5602H28.91V45.3302H26.48V46.7102H29.31L29.32 46.7202Z" fill="#2657E8"/>
<path d="M4.2 51.4602C4.2 52.5602 3.38 53.2502 2.06 53.2502H0.93V54.7002H0V49.6802H2.07C3.39 49.6802 4.21 50.3502 4.21 51.4702L4.2 51.4602ZM3.26 51.4602C3.26 50.8302 2.84 50.4602 2.02 50.4602H0.93V52.4602H2.02C2.84 52.4602 3.26 52.0902 3.26 51.4602Z" fill="#2657E8"/>
<path d="M4.84 52.1902C4.84 50.7002 5.99 49.6102 7.55 49.6102C9.11 49.6102 10.26 50.7002 10.26 52.1902C10.26 53.6802 9.11 54.7702 7.55 54.7702C5.99 54.7702 4.84 53.6702 4.84 52.1902ZM9.31 52.1902C9.31 51.1602 8.56 50.4202 7.55 50.4202C6.54 50.4202 5.77999 51.1602 5.77999 52.1902C5.77999 53.2202 6.53 53.9602 7.55 53.9602C8.57 53.9602 9.31 53.2202 9.31 52.1902Z" fill="#2657E8"/>
<path d="M11.23 49.6702H13.43C15.06 49.6702 16.17 50.6702 16.17 52.1802C16.17 53.6902 15.06 54.6902 13.43 54.6902H11.23V49.6702ZM13.39 53.9102C14.51 53.9102 15.23 53.2302 15.23 52.1902C15.23 51.1502 14.51 50.4702 13.39 50.4702H12.17V53.9202H13.39V53.9102Z" fill="#2657E8"/>
<path d="M16.8 52.1902C16.8 50.6902 17.95 49.6102 19.49 49.6102C20.31 49.6102 21.01 49.9002 21.48 50.4502L20.88 51.0202C20.51 50.6202 20.06 50.4302 19.54 50.4302C18.5 50.4302 17.74 51.1602 17.74 52.2002C17.74 53.2402 18.49 53.9702 19.54 53.9702C20.06 53.9702 20.52 53.7802 20.88 53.3802L21.48 53.9502C21.01 54.5002 20.31 54.7902 19.48 54.7902C17.94 54.7902 16.8 53.7102 16.8 52.2102V52.1902Z" fill="#2657E8"/>
<path d="M25.52 53.5402H23.01L22.52 54.7002H21.56L23.82 49.6802H24.74L27.01 54.7002H26.03L25.53 53.5402H25.52ZM25.22 52.8002L24.27 50.6002L23.33 52.8002H25.22Z" fill="#2657E8"/>
<path d="M27.21 54.1702L27.53 53.4502C27.93 53.7702 28.57 54.0002 29.19 54.0002C29.97 54.0002 30.3 53.7202 30.3 53.3502C30.3 52.2702 27.31 52.9802 27.31 51.1102C27.31 50.3002 27.96 49.6102 29.33 49.6102C29.93 49.6102 30.56 49.7702 31 50.0602L30.71 50.7902C30.26 50.5202 29.76 50.3902 29.33 50.3902C28.55 50.3902 28.24 50.6902 28.24 51.0702C28.24 52.1402 31.22 51.4402 31.22 53.2902C31.22 54.0902 30.57 54.7802 29.19 54.7802C28.41 54.7802 27.62 54.5402 27.21 54.1802V54.1702Z" fill="#2657E8"/>
<path d="M33.09 50.4602H31.42V49.6702H35.68V50.4602H34.01V54.7002H33.08V50.4602H33.09Z" fill="#2657E8"/>
</svg>
