<svg width="25" height="21" viewBox="0 0 25 21" fill="none" xmlns="http://www.w3.org/2000/svg">
<path d="M3.565 3.06494H23.795V19.4549H3.565V3.06494ZM22.875 4.63494C22.465 4.93494 22.205 5.10494 21.965 5.29494C19.525 7.23494 17.065 9.15494 14.675 11.1449C13.955 11.7449 13.485 11.8149 12.745 11.1849C10.835 9.56494 8.84501 8.03494 6.88501 6.46494C6.14501 5.87494 5.39501 5.28494 4.51501 4.59494V18.4849H22.885V4.63494H22.875ZM21.945 4.06494H5.425C8.295 6.35494 10.955 8.48494 13.675 10.6549C16.385 8.49494 19.035 6.37494 21.935 4.06494H21.945Z" fill="#E3E16A" stroke="#E3E16A" stroke-width="2.23" stroke-miterlimit="10"/>
<path d="M0.785004 0.784973H21.015V17.175H0.785004V0.784973ZM20.095 2.36497C19.685 2.66497 19.425 2.83497 19.185 3.02497C16.745 4.96497 14.285 6.88497 11.895 8.87497C11.175 9.47497 10.705 9.54497 9.96501 8.91497C8.05501 7.29497 6.06501 5.76497 4.10501 4.19497C3.36501 3.60497 2.615 3.01497 1.735 2.32497V16.215H20.105V2.36497H20.095ZM19.165 1.78497H2.645C5.515 4.07497 8.175 6.20497 10.895 8.37497C13.605 6.21497 16.255 4.09497 19.155 1.78497H19.165Z" fill="#2657E8" stroke="#2657E8" stroke-width="1.57" stroke-miterlimit="10"/>
</svg>
