<svg width="326" height="176" viewBox="0 0 326 176" fill="none" xmlns="http://www.w3.org/2000/svg">
<path d="M179.34 158.46C178.72 159.17 178.22 160.11 177.83 161.26C177.44 162.41 177.25 163.6 177.25 164.81C177.25 166.14 177.76 166.81 178.77 166.81C179.73 166.81 180.61 166.22 181.41 165.05L181.81 165.21C181.33 165.98 180.72 166.62 179.98 167.13C179.24 167.64 178.4 167.89 177.45 167.89C176.5 167.89 175.7 167.63 175.12 167.11C174.54 166.59 174.25 165.82 174.25 164.81C174.25 163.66 174.54 162.48 175.11 161.26C175.68 160.04 176.49 159.02 177.53 158.21C178.57 157.4 179.75 156.99 181.07 156.99C181.8 156.99 182.39 157.17 182.84 157.54C183.29 157.91 183.51 158.36 183.51 158.91C183.51 159.27 183.42 159.62 183.25 159.97C183.08 160.32 182.84 160.6 182.53 160.81C182.22 161.02 181.89 161.13 181.53 161.13C181.2 161.13 180.92 161.02 180.71 160.81C180.5 160.6 180.39 160.32 180.39 159.97C180.39 159.45 180.57 158.99 180.93 158.58C181.29 158.17 181.72 157.91 182.21 157.79C181.98 157.52 181.66 157.39 181.25 157.39C180.6 157.39 179.96 157.75 179.34 158.46Z" fill="#2657E8"/>
<path d="M184.35 161.17C184.85 159.98 185.59 158.99 186.57 158.19C187.55 157.39 188.72 156.99 190.08 156.99C191.12 156.99 191.92 157.27 192.48 157.84C193.04 158.41 193.32 159.22 193.32 160.29C193.32 161.36 193.07 162.52 192.57 163.71C192.07 164.9 191.33 165.89 190.35 166.69C189.37 167.49 188.2 167.89 186.84 167.89C185.8 167.89 185 167.61 184.44 167.04C183.88 166.47 183.6 165.66 183.6 164.59C183.6 163.52 183.85 162.36 184.35 161.17ZM188.36 158.81C187.77 159.76 187.28 160.92 186.88 162.29C186.48 163.66 186.28 164.94 186.28 166.13C186.28 166.61 186.33 166.96 186.44 167.17C186.55 167.38 186.72 167.49 186.96 167.49C187.45 167.49 187.99 167.03 188.57 166.11C189.15 165.19 189.64 164.05 190.04 162.68C190.44 161.31 190.64 160.02 190.64 158.79C190.64 158.27 190.59 157.91 190.48 157.7C190.37 157.49 190.21 157.39 189.98 157.39C189.49 157.39 188.95 157.86 188.36 158.81Z" fill="#2657E8"/>
<path d="M210.16 164.37L209.66 165.83C209.18 167.2 208.28 167.89 206.96 167.89C206.19 167.89 205.65 167.65 205.36 167.17C205.21 166.94 205.14 166.64 205.14 166.27C205.14 165.83 205.24 165.31 205.44 164.71L207.24 159.31C207.35 158.96 207.4 158.7 207.4 158.51C207.4 158.24 207.31 158.11 207.12 158.11C206.57 158.11 205.92 158.77 205.15 160.08C204.38 161.39 203.61 163.3 202.84 165.81V165.75L202.32 167.61H199.46L201.9 159.31C202.01 158.96 202.06 158.69 202.06 158.49C202.06 158.24 201.95 158.11 201.74 158.11C201.14 158.11 200.46 158.8 199.71 160.19C198.96 161.58 198.25 163.38 197.58 165.61V165.59L197.06 167.61H194.24L196.68 158.97C196.75 158.74 196.78 158.55 196.78 158.39C196.78 158.11 196.66 157.97 196.42 157.97C196.18 157.97 195.96 158.09 195.77 158.34C195.58 158.59 195.37 158.99 195.16 159.55L194.78 160.57H194.4L194.94 159.05C195.21 158.32 195.58 157.79 196.05 157.47C196.52 157.15 197.05 156.99 197.64 156.99C198.23 156.99 198.63 157.14 198.88 157.43C199.13 157.72 199.26 158.11 199.26 158.59C199.26 158.94 199.2 159.34 199.08 159.79L198.64 161.51C199.29 159.88 199.96 158.72 200.65 158.03C201.34 157.34 202.16 156.99 203.12 156.99C204.17 156.99 204.7 157.51 204.7 158.55C204.7 158.92 204.62 159.41 204.46 160.01L204.1 161.29C204.77 159.7 205.44 158.59 206.13 157.95C206.82 157.31 207.61 156.99 208.5 156.99C209.06 156.99 209.47 157.13 209.74 157.41C210.01 157.69 210.14 158.07 210.14 158.55C210.14 158.99 210.05 159.48 209.86 160.01L207.9 165.91C207.82 166.16 207.78 166.36 207.78 166.49C207.78 166.77 207.91 166.91 208.16 166.91C208.61 166.91 209.03 166.38 209.42 165.33L209.78 164.37H210.16Z" fill="#2657E8"/>
<path d="M212.05 161.17C212.55 159.98 213.29 158.99 214.27 158.19C215.25 157.39 216.42 156.99 217.78 156.99C218.82 156.99 219.62 157.27 220.18 157.84C220.74 158.41 221.02 159.22 221.02 160.29C221.02 161.36 220.77 162.52 220.27 163.71C219.77 164.9 219.03 165.89 218.05 166.69C217.07 167.49 215.9 167.89 214.54 167.89C213.5 167.89 212.7 167.61 212.14 167.04C211.58 166.47 211.3 165.66 211.3 164.59C211.3 163.52 211.55 162.36 212.05 161.17ZM216.06 158.81C215.47 159.76 214.98 160.92 214.58 162.29C214.18 163.66 213.98 164.94 213.98 166.13C213.98 166.61 214.03 166.96 214.14 167.17C214.25 167.38 214.42 167.49 214.66 167.49C215.15 167.49 215.69 167.03 216.27 166.11C216.85 165.19 217.34 164.05 217.74 162.68C218.14 161.31 218.34 160.02 218.34 158.79C218.34 158.27 218.29 157.91 218.18 157.7C218.07 157.49 217.91 157.39 217.68 157.39C217.19 157.39 216.65 157.86 216.06 158.81Z" fill="#2657E8"/>
<path d="M234.36 169.35C234.29 169.58 234.26 169.76 234.26 169.91C234.26 170.2 234.37 170.42 234.59 170.56C234.81 170.7 235.14 170.78 235.58 170.81L235.46 171.23L234.98 171.21C233.62 171.17 232.75 171.15 232.36 171.15C231.89 171.15 230.91 171.18 229.42 171.23L229.54 170.81C230.15 170.8 230.61 170.68 230.9 170.47C231.19 170.26 231.41 169.9 231.54 169.41L232.82 164.61C232.3 165.77 231.77 166.61 231.22 167.12C230.67 167.63 230.06 167.89 229.38 167.89C228.57 167.89 227.95 167.63 227.53 167.1C227.11 166.57 226.9 165.81 226.9 164.81C226.9 163.74 227.17 162.59 227.71 161.36C228.25 160.13 229 159.09 229.95 158.25C230.9 157.41 231.96 156.99 233.12 156.99C233.51 156.99 233.85 157.07 234.16 157.22C234.47 157.37 234.69 157.58 234.84 157.85C235.52 157.8 236.39 157.5 237.44 156.97L237.76 157.11C237.6 157.43 237.45 157.82 237.32 158.29L234.36 169.35ZM234.6 158.03C234.35 157.72 234.04 157.57 233.68 157.57C233.05 157.57 232.44 158.01 231.85 158.89C231.26 159.77 230.77 160.84 230.39 162.09C230.01 163.34 229.82 164.46 229.82 165.45C229.82 165.9 229.88 166.23 229.99 166.42C230.1 166.61 230.27 166.71 230.5 166.71C230.82 166.71 231.18 166.48 231.58 166.01C231.98 165.54 232.36 164.92 232.73 164.14C233.1 163.36 233.39 162.53 233.6 161.65L233.54 161.95L234.6 158.03Z" fill="#2657E8"/>
<path d="M248.48 164.31H248.86L248.32 165.83C248.07 166.56 247.7 167.09 247.23 167.41C246.76 167.73 246.23 167.89 245.64 167.89C245.28 167.89 244.97 167.83 244.72 167.71C244.47 167.59 244.28 167.42 244.16 167.21C244.04 166.97 243.98 166.7 243.98 166.39C243.98 166.08 244.05 165.65 244.18 165.09L244.72 163.03C244.2 164.28 243.7 165.26 243.22 165.97C242.74 166.68 242.25 167.17 241.76 167.46C241.27 167.75 240.71 167.89 240.1 167.89C239.49 167.89 239.05 167.75 238.75 167.47C238.45 167.19 238.3 166.78 238.3 166.25C238.3 165.84 238.39 165.38 238.56 164.87L240.5 158.97C240.58 158.73 240.62 158.54 240.62 158.39C240.62 158.11 240.49 157.97 240.24 157.97C240.03 157.97 239.82 158.08 239.61 158.31C239.4 158.54 239.19 158.95 238.98 159.55L238.62 160.51H238.24L238.74 159.05C239.22 157.68 240.11 156.99 241.42 156.99C242.63 156.99 243.24 157.54 243.24 158.65C243.24 159.06 243.15 159.57 242.96 160.17L241.16 165.57C241.04 165.93 240.98 166.22 240.98 166.43C240.98 166.74 241.11 166.89 241.36 166.89C241.76 166.89 242.23 166.5 242.78 165.71C243.33 164.92 243.88 163.88 244.43 162.58C244.98 161.28 245.47 159.88 245.9 158.39L246.2 157.27C247.39 157.24 248.35 157.15 249.1 156.99L246.6 165.91C246.52 166.19 246.48 166.41 246.48 166.57C246.48 166.8 246.59 166.91 246.82 166.91C247.07 166.91 247.3 166.79 247.5 166.55C247.7 166.31 247.9 165.9 248.1 165.33L248.48 164.31Z" fill="#2657E8"/>
<path d="M252.62 158.37C252.62 158.1 252.5 157.97 252.26 157.97C252.02 157.97 251.8 158.09 251.6 158.34C251.4 158.59 251.19 158.99 250.98 159.55L250.58 160.57H250.2L250.76 159.05C251.25 157.68 252.18 156.99 253.54 156.99C254.15 156.99 254.6 157.14 254.88 157.44C255.16 157.74 255.3 158.13 255.3 158.61C255.3 159 255.23 159.39 255.08 159.79L252.98 165.91C252.9 166.15 252.86 166.34 252.86 166.49C252.86 166.77 252.99 166.91 253.26 166.91C253.46 166.91 253.66 166.8 253.87 166.57C254.08 166.34 254.29 165.93 254.52 165.33L254.88 164.37H255.26L254.74 165.83C254.27 167.2 253.37 167.89 252.04 167.89C250.83 167.89 250.22 167.34 250.22 166.23C250.22 165.79 250.32 165.28 250.52 164.71L252.48 158.97C252.57 158.66 252.62 158.46 252.62 158.37ZM253.84 152.63C254.23 152.31 254.71 152.15 255.28 152.15C255.75 152.15 256.11 152.26 256.37 152.48C256.63 152.7 256.76 153 256.76 153.39C256.76 153.92 256.56 154.36 256.16 154.71C255.76 155.06 255.27 155.23 254.68 155.23C254.2 155.23 253.83 155.11 253.58 154.88C253.33 154.65 253.21 154.33 253.24 153.93C253.25 153.38 253.45 152.95 253.84 152.63Z" fill="#2657E8"/>
<path d="M263.64 161.47C262.4 162.3 260.96 162.94 259.32 163.39C259.24 163.84 259.2 164.3 259.2 164.75C259.2 165.46 259.33 165.96 259.59 166.25C259.85 166.54 260.23 166.69 260.74 166.69C261.15 166.69 261.62 166.56 262.14 166.3C262.66 166.04 263.17 165.62 263.66 165.05L263.98 165.21C263.5 165.96 262.86 166.59 262.05 167.11C261.24 167.63 260.34 167.89 259.34 167.89C258.42 167.89 257.67 167.64 257.08 167.15C256.49 166.66 256.2 165.96 256.2 165.07C256.2 163.88 256.52 162.66 257.16 161.39C257.8 160.12 258.67 159.07 259.78 158.24C260.89 157.41 262.1 156.99 263.42 156.99C264.03 156.99 264.53 157.13 264.92 157.4C265.31 157.67 265.5 158.06 265.5 158.57C265.5 159.68 264.88 160.64 263.64 161.47ZM261.66 158.19C261.17 158.74 260.71 159.45 260.3 160.32C259.89 161.19 259.58 162.09 259.38 163.01C260.33 162.6 261.06 162.15 261.58 161.67C262.11 161.19 262.53 160.64 262.84 160.02C263.15 159.4 263.3 158.74 263.3 158.03C263.3 157.78 263.27 157.6 263.22 157.51C263.17 157.42 263.09 157.37 262.98 157.37C262.59 157.37 262.15 157.64 261.66 158.19Z" fill="#2657E8"/>
<path d="M275.05 157.44C275.34 157.74 275.48 158.13 275.48 158.61C275.48 159.18 275.3 159.67 274.93 160.08C274.56 160.49 274.11 160.69 273.58 160.69C273.19 160.69 272.89 160.59 272.68 160.38C272.47 160.17 272.36 159.88 272.36 159.49C272.36 159.02 272.52 158.6 272.84 158.22C273.16 157.84 273.55 157.6 274.02 157.49C273.99 157.49 273.95 157.48 273.9 157.46C273.85 157.44 273.8 157.43 273.76 157.43C273.08 157.43 272.39 157.92 271.68 158.91C270.97 159.9 270.25 161.66 269.52 164.19L268.64 167.61H265.82L268.26 158.97C268.33 158.76 268.36 158.55 268.36 158.35C268.36 158.1 268.25 157.97 268.04 157.97C267.79 157.97 267.56 158.09 267.36 158.33C267.16 158.57 266.95 158.98 266.74 159.55L266.36 160.57H265.98L266.52 159.05C267.01 157.68 267.93 156.99 269.28 156.99C270.31 156.99 270.82 157.53 270.82 158.61C270.82 159 270.77 159.39 270.66 159.79L270.5 160.43C270.99 159.16 271.5 158.27 272.01 157.76C272.52 157.25 273.14 156.99 273.86 156.99C274.37 156.99 274.76 157.14 275.05 157.44Z" fill="#2657E8"/>
<path d="M284.54 164.37H284.92L284.42 165.83C284.15 166.58 283.78 167.11 283.31 167.42C282.84 167.73 282.33 167.89 281.78 167.89C281.09 167.89 280.59 167.68 280.3 167.27C280.11 167.03 280.02 166.7 280.02 166.27C280.02 165.92 280.08 165.53 280.2 165.09C279.75 166.08 279.24 166.79 278.69 167.23C278.14 167.67 277.53 167.89 276.86 167.89C276.13 167.89 275.57 167.67 275.19 167.24C274.81 166.81 274.62 166.2 274.62 165.43C274.62 164.24 274.94 162.99 275.57 161.66C276.2 160.33 277.01 159.22 277.98 158.33C278.95 157.44 279.91 156.99 280.84 156.99C281.2 156.99 281.49 157.1 281.71 157.31C281.93 157.52 282.06 157.84 282.1 158.27L282.38 157.29C283.45 157.28 284.41 157.18 285.28 156.99L282.66 165.91C282.59 166.14 282.56 166.32 282.56 166.47C282.56 166.76 282.69 166.91 282.94 166.91C283.41 166.91 283.82 166.38 284.18 165.33L284.54 164.37ZM281.88 159.05C281.89 158.98 281.9 158.88 281.9 158.75C281.9 158.42 281.84 158.16 281.73 157.99C281.62 157.82 281.45 157.73 281.22 157.73C280.77 157.73 280.25 158.14 279.67 158.95C279.09 159.76 278.6 160.78 278.19 162.01C277.78 163.24 277.58 164.42 277.58 165.57C277.58 166.01 277.62 166.33 277.71 166.52C277.8 166.71 277.94 166.81 278.14 166.81C278.43 166.81 278.76 166.61 279.11 166.2C279.46 165.79 279.82 165.21 280.17 164.44C280.52 163.67 280.83 162.76 281.1 161.71L281 162.19L281.88 159.05Z" fill="#2657E8"/>
<path d="M288.06 167.47C288.57 167.47 288.97 167.32 289.28 167.01C289.59 166.7 289.74 166.28 289.74 165.75C289.74 165.32 289.65 164.88 289.46 164.43C289.27 163.98 288.99 163.46 288.62 162.89C288.57 162.81 288.41 162.57 288.15 162.17C287.89 161.77 287.7 161.39 287.57 161.02C287.44 160.65 287.38 160.29 287.38 159.93C287.38 159.06 287.7 158.36 288.35 157.81C289 157.26 289.89 156.99 291.02 156.99C291.89 156.99 292.61 157.15 293.19 157.46C293.77 157.77 294.06 158.31 294.06 159.07C294.06 159.44 293.95 159.78 293.74 160.09C293.53 160.4 293.23 160.55 292.84 160.55C292.51 160.55 292.24 160.42 292.04 160.17C291.84 159.92 291.74 159.6 291.74 159.21C291.74 158.88 291.8 158.57 291.92 158.28C292.04 157.99 292.19 157.75 292.36 157.55C292.19 157.44 291.95 157.39 291.66 157.39C291.18 157.39 290.8 157.54 290.53 157.84C290.26 158.14 290.11 158.56 290.1 159.09C290.1 159.45 290.17 159.78 290.31 160.07C290.45 160.36 290.69 160.78 291.02 161.31L291.3 161.73C291.73 162.44 292.03 163.02 292.21 163.47C292.39 163.92 292.48 164.38 292.48 164.83C292.48 165.42 292.33 165.94 292.02 166.4C291.71 166.86 291.28 167.22 290.71 167.49C290.14 167.76 289.48 167.89 288.72 167.89C287.77 167.89 286.99 167.71 286.36 167.34C285.73 166.97 285.42 166.38 285.42 165.57C285.42 165.17 285.52 164.83 285.72 164.55C285.92 164.27 286.19 164.13 286.54 164.13C286.89 164.13 287.16 164.28 287.37 164.57C287.58 164.86 287.68 165.24 287.68 165.69C287.68 165.98 287.65 166.25 287.58 166.48C287.51 166.71 287.41 167 287.28 167.33C287.48 167.42 287.74 167.47 288.06 167.47Z" fill="#2657E8"/>
<path d="M185.04 149.78V152.2H174.95V139.16H184.8V141.58H177.95V144.41H184V146.76H177.95V149.78H185.05H185.04Z" fill="#2657E8"/>
<path d="M186.42 150.91L187.44 148.64C188.54 149.44 190.18 150 191.74 150C193.53 150 194.25 149.4 194.25 148.6C194.25 146.16 186.67 147.84 186.67 143C186.67 140.78 188.46 138.94 192.16 138.94C193.8 138.94 195.47 139.33 196.68 140.09L195.75 142.38C194.54 141.69 193.29 141.36 192.14 141.36C190.35 141.36 189.66 142.03 189.66 142.85C189.66 145.25 197.24 143.59 197.24 148.38C197.24 150.56 195.43 152.42 191.71 152.42C189.64 152.42 187.56 151.81 186.4 150.91H186.42Z" fill="#2657E8"/>
<path d="M198.5 145.68C198.5 141.75 201.52 138.94 205.58 138.94C207.83 138.94 209.71 139.76 210.94 141.25L209 143.04C208.12 142.03 207.03 141.51 205.72 141.51C203.28 141.51 201.55 143.22 201.55 145.68C201.55 148.14 203.28 149.85 205.72 149.85C207.02 149.85 208.12 149.33 209 148.3L210.94 150.09C209.71 151.6 207.83 152.42 205.56 152.42C201.52 152.42 198.5 149.61 198.5 145.68Z" fill="#2657E8"/>
<path d="M212.75 146.46V139.16H215.77V146.35C215.77 148.83 216.85 149.85 218.68 149.85C220.51 149.85 221.58 148.83 221.58 146.35V139.16H224.56V146.46C224.56 150.3 222.36 152.42 218.66 152.42C214.96 152.42 212.76 150.3 212.76 146.46H212.75ZM219.49 135.42H222.62L219.25 138.1H216.98L219.5 135.42H219.49Z" fill="#2657E8"/>
<path d="M226.71 145.68C226.71 141.75 229.73 138.94 233.79 138.94C236.04 138.94 237.92 139.76 239.15 141.25L237.21 143.04C236.33 142.03 235.24 141.51 233.93 141.51C231.49 141.51 229.76 143.22 229.76 145.68C229.76 148.14 231.49 149.85 233.93 149.85C235.23 149.85 236.33 149.33 237.21 148.3L239.15 150.09C237.92 151.6 236.04 152.42 233.77 152.42C229.73 152.42 226.71 149.61 226.71 145.68Z" fill="#2657E8"/>
<path d="M253.13 139.16V152.2H250.11V146.86H244.19V152.2H241.17V139.16H244.19V144.3H250.11V139.16H253.13Z" fill="#2657E8"/>
<path d="M264.81 149.4H258.76L257.6 152.19H254.51L260.32 139.15H263.3L269.13 152.19H265.96L264.8 149.4H264.81ZM263.86 147.11L261.79 142.12L259.72 147.11H263.85H263.86Z" fill="#2657E8"/>
<path d="M270.49 139.16H273.51V149.74H280.05V152.2H270.5V139.16H270.49Z" fill="#2657E8"/>
<path d="M280.69 145.68C280.69 141.81 283.71 138.94 287.82 138.94C291.93 138.94 294.95 141.79 294.95 145.68C294.95 149.57 291.92 152.42 287.82 152.42C283.72 152.42 280.69 149.55 280.69 145.68ZM291.9 145.68C291.9 143.2 290.15 141.51 287.82 141.51C285.49 141.51 283.74 143.2 283.74 145.68C283.74 148.16 285.49 149.85 287.82 149.85C290.15 149.85 291.9 148.16 291.9 145.68Z" fill="#2657E8"/>
<path d="M180 125.11C169.28 125.27 159.76 135.26 159.69 145.93C159.67 146.21 159.66 146.49 159.65 146.77C159.523 149.49 160.787 150.853 163.44 150.86C167.91 150.86 168.64 151.6 168.64 156.1C168.64 160.97 168.67 165.84 168.64 170.72C168.62 173.96 167.65 174.89 164.44 174.93C157.03 175.03 153.52 171.59 153.51 164.23C153.51 161.51 153.51 158.8 153.51 155.5C153.67 150.86 153.08 145.61 154.58 140.45C158.17 128.04 168.84 121.02 180.04 121.02" fill="#2657E8"/>
<path d="M289.09 125.45C299.81 125.61 309.33 135.6 309.4 146.27C309.42 146.55 309.43 146.83 309.44 147.11C309.567 149.83 308.303 151.193 305.65 151.2C301.18 151.2 300.45 151.94 300.45 156.44C300.45 161.31 300.42 166.18 300.45 171.06C300.47 174.3 301.44 175.23 304.65 175.27C312.06 175.37 315.57 171.93 315.58 164.57C315.58 161.85 315.58 159.14 315.58 155.84C315.42 151.2 316.01 145.95 314.51 140.79C310.92 128.38 300.25 121.36 289.05 121.36" fill="#2657E8"/>
<path d="M82.16 97.88C89.7 97.88 98.5399 86.96 102.69 79.69L106.33 81.77C99.05 94.25 74.1 129.86 57.98 129.86C49.4 129.86 45.5 124.14 45.5 116.09C45.5 107.77 49.14 98.93 52.52 91.4L93.33 0.169983H115.94L83.71 72.69C81.11 78.67 77.47 84.91 77.47 91.93C77.47 94.79 78.77 97.91 82.15 97.91" fill="#2657E8"/>
<path d="M138.3 50.32C134.14 59.68 121.67 83.33 121.67 92.43C121.67 95.29 123.75 97.89 126.87 97.89C133.63 97.89 142.73 87.49 147.14 79.7L150.78 81.78C143.76 93.74 118.29 130.12 102.96 130.12C96.2 130.12 89.97 125.44 89.97 116.09C89.97 109.07 92.57 102.31 95.43 95.82L115.44 50.33H138.31L138.3 50.32Z" fill="#2657E8"/>
<path d="M187.94 130.11C180.14 130.11 175.72 122.83 175.72 115.55C175.72 97.36 195.74 79.16 195.74 65.91C195.74 63.31 194.7 60.71 191.58 60.71C180.92 60.71 169.75 79.68 165.85 88.26L147.92 127.51H125.31L160.14 50.31H183.01L175.99 65.13C182.23 56.81 194.96 46.94 205.88 46.94C213.16 46.94 218.1 50.32 218.1 57.86C218.1 71.38 206.92 82.29 206.92 91.91C206.92 95.03 208.48 97.89 212.12 97.89C219.92 97.89 228.75 86.19 232.39 79.7L236.03 81.78C227.97 94.77 205.62 130.12 187.94 130.12" fill="#2657E8"/>
<path d="M277.35 54.74C264.35 54.74 251.88 78.65 251.88 89.83C251.88 93.47 253.96 98.67 258.38 98.67C271.38 98.67 283.33 73.98 283.33 62.8C283.33 59.16 281.51 54.74 277.35 54.74ZM270.85 100.22C265.13 111.66 252.13 130.11 237.84 130.11C227.18 130.11 221.98 121.01 221.98 111.14C221.98 85.93 248.49 48.24 275.52 48.24C281.5 48.24 286.7 51.36 287.21 57.6L290.85 50.32H312.94C308.52 59.42 296.3 83.33 296.3 92.43C296.3 95.29 298.64 97.89 301.5 97.89C308.52 97.89 316.84 87.49 321.51 79.7L325.15 81.78C318.65 92.7 293.18 130.12 278.36 130.12C263.54 130.12 267.7 109.07 271.34 100.49L270.82 100.23L270.85 100.22Z" fill="#2657E8"/>
<path d="M220.43 25.48C205.36 25.48 201.98 16.64 188.2 16.64C179.88 16.64 173.39 20.54 168.45 27.03L166.11 24.95C173.91 14.03 183.01 1.56 196 1.56C211.08 1.56 216.01 10.14 229.79 10.14C237.85 10.14 244.61 6.5 249.28 0L251.88 1.81998C244.34 12.74 233.43 25.47 220.43 25.47" fill="#2657E8"/>
<path d="M17.39 50.13C20.97 50.13 25.16 44.55 27.14 40.83L28.87 41.89C25.42 48.27 13.57 66.47 5.91998 66.47C1.84998 66.47 0 63.55 0 59.43C0 55.18 1.72996 50.66 3.32996 46.8L22.7 0.160004H33.43L18.1299 37.24C16.8999 40.3 15.17 43.49 15.17 47.07C15.17 48.53 15.79 50.13 17.39 50.13Z" fill="#2657E8"/>
<path d="M48.47 28.07C42.3 28.07 36.3799 40.3 36.3799 46.01C36.3799 47.87 37.37 50.53 39.46 50.53C45.63 50.53 51.3 37.91 51.3 32.19C51.3 30.33 50.44 28.07 48.46 28.07M45.39 51.33C42.67 57.18 36.51 66.61 29.72 66.61C24.66 66.61 22.1899 61.96 22.1899 56.91C22.1899 44.02 34.77 24.75 47.6 24.75C50.44 24.75 52.9 26.34 53.15 29.53L54.8799 25.81H65.37C63.27 30.46 57.47 42.69 57.47 47.34C57.47 48.8 58.5799 50.13 59.9399 50.13C63.2699 50.13 67.2199 44.82 69.4399 40.83L71.17 41.89C68.09 47.47 55.99 66.61 48.96 66.61C41.93 66.61 43.8999 55.85 45.6299 51.46L45.3799 51.33H45.39Z" fill="#2657E8"/>
<path d="M138.81 0.149994C146.14 0.149994 152.3 6.29998 152.3 13.64C152.3 20.97 146.15 26.89 138.81 26.89C131.47 26.89 125.56 20.97 125.56 13.64C125.56 6.29998 131.48 0.149994 138.81 0.149994Z" fill="#2657E8"/>
</svg>
