<svg width="35" height="48" viewBox="0 0 35 48" fill="none" xmlns="http://www.w3.org/2000/svg">
<path d="M17.26 34.5303C8.09 34.6103 0 27.1903 0 17.2503C0 7.55035 7.83 0.0603443 17.18 0.000344287C26.77 -0.0596557 34.58 7.73035 34.55 17.3303C34.52 26.9003 26.72 34.6303 17.26 34.5303ZM14.37 9.02034C12.88 9.16034 11.45 9.24035 10.04 9.44035C8.84 9.61035 7.66 9.91035 6.47 10.1903C5.76 10.3503 5.01 11.2903 5.35 12.2603C5.67 13.1703 6.54 13.6403 7.47 13.3503C9.42 12.7403 11.42 12.5103 13.45 12.4303C14.55 12.3903 15.66 12.4103 16.75 12.4903C18.01 12.5803 19.28 12.7103 20.52 12.9203C23 13.3503 25.38 14.1203 27.57 15.3903C28 15.6403 28.47 15.6603 28.93 15.4703C29.58 15.2003 29.95 14.6903 30.01 14.0003C30.07 13.3403 29.76 12.8203 29.19 12.4703C28.17 11.8303 27.08 11.3303 25.95 10.9303C23.56 10.0703 21.11 9.53034 18.58 9.31034C17.15 9.19034 15.72 9.11034 14.35 9.02034H14.37ZM14.32 17.7703C15.33 17.8503 16.34 17.9303 17.34 18.0203C18.85 18.1603 20.32 18.5103 21.76 18.9803C23.04 19.4003 24.27 19.9603 25.43 20.6403C26.19 21.0903 27.08 20.8103 27.42 20.0603C27.72 19.3903 27.52 18.6903 26.87 18.3003C25.59 17.5203 24.23 16.9003 22.82 16.4203C20.27 15.5503 17.65 15.1003 14.96 15.0403C13.44 15.0103 11.93 15.0803 10.43 15.3403C9.42 15.5203 8.42 15.7703 7.43 16.0403C6.88 16.1903 6.55 16.6003 6.5 17.1803C6.4 18.2603 7.27 18.9403 8.35 18.6303C10.3 18.0703 12.29 17.8103 14.32 17.7603V17.7703ZM24.28 25.5303C24.8 25.4703 25.22 25.1503 25.36 24.6503C25.5 24.1603 25.3 23.7003 24.82 23.4003C23.57 22.6303 22.24 22.0503 20.85 21.6203C18.34 20.8403 15.76 20.6003 13.13 20.7703C11.43 20.8803 9.75 21.1303 8.09 21.5003C7.58 21.6103 7.27 21.9403 7.17 22.4603C7.08 22.9003 7.3 23.2203 7.62 23.4803C7.94 23.7303 8.31 23.7403 8.69 23.6503C10.19 23.3103 11.7 23.0903 13.23 22.9903C15.03 22.8603 16.8 22.9903 18.57 23.3403C20.36 23.7003 22.03 24.3603 23.61 25.2703C23.82 25.3903 24.05 25.4503 24.28 25.5403V25.5303Z" fill="#2657E8"/>
<path d="M1.73001 46.7203L2.05001 46.0003C2.45001 46.3203 3.09001 46.5503 3.71001 46.5503C4.49001 46.5503 4.82001 46.2703 4.82001 45.9003C4.82001 44.8203 1.83001 45.5303 1.83001 43.6603C1.83001 42.8503 2.48001 42.1603 3.85001 42.1603C4.45001 42.1603 5.08001 42.3203 5.52001 42.6103L5.23001 43.3403C4.78001 43.0703 4.28001 42.9403 3.85001 42.9403C3.07001 42.9403 2.76001 43.2403 2.76001 43.6203C2.76001 44.6903 5.74001 43.9903 5.74001 45.8403C5.74001 46.6403 5.09001 47.3303 3.71001 47.3303C2.93001 47.3303 2.14001 47.0903 1.73001 46.7303V46.7203Z" fill="#2657E8"/>
<path d="M10.87 44.0103C10.87 45.1103 10.05 45.8003 8.73002 45.8003H7.60001V47.2503H6.67001V42.2303H8.74001C10.06 42.2303 10.88 42.9003 10.88 44.0203L10.87 44.0103ZM9.93002 44.0103C9.93002 43.3803 9.51002 43.0103 8.69002 43.0103H7.60001V45.0103H8.69002C9.51002 45.0103 9.93002 44.6403 9.93002 44.0103Z" fill="#2657E8"/>
<path d="M11.51 44.7303C11.51 43.2403 12.66 42.1503 14.22 42.1503C15.78 42.1503 16.93 43.2403 16.93 44.7303C16.93 46.2203 15.78 47.3103 14.22 47.3103C12.66 47.3103 11.51 46.2103 11.51 44.7303ZM15.98 44.7303C15.98 43.7003 15.23 42.9603 14.22 42.9603C13.21 42.9603 12.45 43.7003 12.45 44.7303C12.45 45.7603 13.2 46.5003 14.22 46.5003C15.24 46.5003 15.98 45.7603 15.98 44.7303Z" fill="#2657E8"/>
<path d="M18.85 43.0103H17.18V42.2203H21.44V43.0103H19.77V47.2503H18.84V43.0103H18.85Z" fill="#2657E8"/>
<path d="M22.15 42.2203H23.08V47.2403H22.15V42.2203Z" fill="#2657E8"/>
<path d="M25.37 43.0003V44.5303H27.8V45.3203H25.37V47.2403H24.44V42.2203H28.11V43.0003H25.38H25.37Z" fill="#2657E8"/>
<path d="M31.17 45.4703V47.2403H30.24V45.4803L28.26 42.2103H29.26L30.73 44.6603L32.22 42.2103H33.14L31.17 45.4603V45.4703Z" fill="#2657E8"/>
</svg>
