<svg width="415" height="92" viewBox="0 0 415 92" fill="none" xmlns="http://www.w3.org/2000/svg">
<path d="M166.36 75.2613C166.07 76.0328 165.99 76.6275 166.119 77.0454C166.279 77.4633 166.585 77.6723 167.035 77.6723C167.453 77.6723 167.903 77.4312 168.385 76.949C168.899 76.4346 169.43 75.4059 169.976 73.8629L170.796 71.5483H171.712L170.555 75.0684C170.137 76.3864 169.574 77.4151 168.867 78.1545C168.16 78.8617 167.388 79.3439 166.553 79.6011C165.749 79.8904 164.961 80.0351 164.19 80.0351C162.197 80.0351 160.927 79.2957 160.38 77.8169C160.091 77.2062 159.963 76.4507 159.995 75.5506C160.027 74.6184 160.22 73.5575 160.573 72.3681L167.276 47.1972C167.597 46.1043 167.565 45.3006 167.179 44.7862C166.794 44.2719 165.813 44.0147 164.238 44.0147L164.527 43.0021C166.81 42.97 168.851 42.7931 170.651 42.4717C172.452 42.1181 174.171 41.6359 175.811 41.0251L166.36 75.2613ZM154.787 77.6241C155.333 77.6241 155.976 77.2705 156.716 76.5632C157.455 75.856 158.243 74.8112 159.078 73.4289C159.914 72.0145 160.718 70.2946 161.489 68.2694C162.261 66.212 162.952 63.8653 163.563 61.2293L162.84 66.437C161.779 69.5231 160.718 72.0788 159.657 74.104C158.628 76.1292 157.487 77.6241 156.234 78.5885C155.012 79.5529 153.549 80.0351 151.845 80.0351C150.785 80.0351 149.82 79.794 148.952 79.3118C148.084 78.8296 147.393 78.1063 146.879 77.1419C146.364 76.1453 146.107 74.8595 146.107 73.2843C146.107 71.8055 146.332 70.1982 146.782 68.4623C147.265 66.6942 147.956 64.9583 148.856 63.2545C149.788 61.5507 150.897 59.9755 152.183 58.5289C153.501 57.0823 154.996 55.9251 156.667 55.0571C158.339 54.1891 160.171 53.7552 162.165 53.7552C163.193 53.7552 163.949 53.9963 164.431 54.4785C164.945 54.9285 165.251 55.5715 165.347 56.4073L164.961 57.3717C164.833 56.5359 164.608 55.909 164.286 55.4911C163.965 55.0732 163.483 54.8642 162.84 54.8642C162.004 54.8642 161.136 55.25 160.236 56.0215C159.336 56.7609 158.468 57.7896 157.632 59.1076C156.828 60.3935 156.089 61.8722 155.414 63.5438C154.739 65.1833 154.208 66.9353 153.823 68.7998C153.437 70.6322 153.244 72.4645 153.244 74.2969C153.244 75.3899 153.356 76.2257 153.581 76.8043C153.839 77.3508 154.24 77.6241 154.787 77.6241ZM180.156 68.8962C181.474 68.3819 182.727 67.8033 183.917 67.1603C185.106 66.5174 186.119 65.8102 186.955 65.0386C188.208 63.9135 189.205 62.6116 189.944 61.1328C190.716 59.6219 191.101 57.9985 191.101 56.2626C191.101 55.6197 191.037 55.2018 190.909 55.0089C190.78 54.7839 190.587 54.6713 190.33 54.6713C189.623 54.6713 188.851 55.041 188.015 55.7804C187.212 56.4876 186.408 57.452 185.604 58.6736C184.801 59.863 184.061 61.2293 183.386 62.7723C182.743 64.3153 182.213 65.9227 181.795 67.5943C181.409 69.2659 181.216 70.8893 181.216 72.4645C181.216 74.2647 181.554 75.5024 182.229 76.1775C182.936 76.8204 183.836 77.1419 184.929 77.1419C185.797 77.1419 186.874 76.8525 188.16 76.2739C189.446 75.6953 190.716 74.6666 191.969 73.1878L192.741 73.5736C192.066 74.6344 191.182 75.6631 190.089 76.6597C188.996 77.6562 187.726 78.476 186.279 79.1189C184.833 79.7297 183.258 80.0351 181.554 80.0351C180.107 80.0351 178.805 79.7779 177.648 79.2635C176.523 78.7492 175.623 77.9938 174.948 76.9972C174.305 75.9685 173.983 74.7148 173.983 73.236C173.983 71.5323 174.257 69.7803 174.803 67.9801C175.382 66.1799 176.185 64.4439 177.214 62.7723C178.243 61.0685 179.48 59.5416 180.927 58.1914C182.374 56.8091 183.981 55.7322 185.749 54.9607C187.517 54.157 189.398 53.7552 191.391 53.7552C192.805 53.7552 193.995 54.0766 194.959 54.7196C195.923 55.3304 196.406 56.2787 196.406 57.5645C196.406 58.8183 196.052 59.9916 195.345 61.0846C194.67 62.1776 193.754 63.1741 192.596 64.0742C191.439 64.9744 190.137 65.778 188.69 66.4852C187.276 67.1925 185.813 67.8033 184.302 68.3176C182.824 68.832 181.425 69.2338 180.107 69.5231L180.156 68.8962ZM244.704 45.2202C244.222 46.4739 243.724 48.0009 243.21 49.8011C242.695 51.5692 242.165 53.7391 241.618 56.3108H240.557C240.815 54.6713 240.927 53.2408 240.895 52.0192C240.895 50.7977 240.638 49.7368 240.124 48.8367C239.513 47.7116 238.725 46.9079 237.761 46.4257C236.796 45.9435 235.687 45.7024 234.434 45.7024C232.826 45.7024 231.283 46.1364 229.804 47.0044C228.326 47.8723 226.959 49.0778 225.706 50.6209C224.452 52.1318 223.343 53.8838 222.379 55.8768C221.446 57.8378 220.707 59.9434 220.16 62.1937C219.646 64.4439 219.389 66.7263 219.389 69.0409C219.389 72.3199 219.968 74.7309 221.125 76.2739C222.314 77.8169 223.906 78.5885 225.899 78.5885C227.088 78.5885 228.342 78.3152 229.66 77.7687C230.978 77.2222 232.135 76.4346 233.132 75.4059C234 74.5058 234.739 73.4771 235.35 72.3199C235.993 71.1626 236.7 69.6517 237.471 67.7872H238.532C237.729 70.7125 237.102 73.0753 236.652 74.8755C236.234 76.6436 235.912 78.1384 235.687 79.36H234.626C234.723 78.6849 234.771 78.1384 234.771 77.7205C234.771 77.0454 234.642 76.6436 234.385 76.515C234.128 76.3864 233.726 76.515 233.18 76.9008C232.312 77.4794 231.396 78.0098 230.431 78.492C229.499 78.9742 228.486 79.3439 227.393 79.6011C226.3 79.8904 225.079 80.0351 223.729 80.0351C219.357 80.0351 216.11 79.0064 213.988 76.949C211.867 74.8595 210.806 71.902 210.806 68.0765C210.806 65.8262 211.159 63.576 211.867 61.3257C212.606 59.0754 213.651 56.9538 215.001 54.9607C216.383 52.9354 218.023 51.1513 219.919 49.6082C221.848 48.0331 223.986 46.7954 226.333 45.8953C228.679 44.9952 231.187 44.5451 233.855 44.5451C235.173 44.5451 236.266 44.6898 237.134 44.9791C238.034 45.2684 238.789 45.6542 239.4 46.1364C240.011 46.6186 240.557 47.133 241.04 47.6794C241.458 48.1616 241.876 48.2099 242.293 47.8241C242.711 47.4383 243.177 46.5704 243.692 45.2202H244.704ZM250.369 77.4312C250.883 77.4312 251.446 77.1579 252.057 76.6114C252.668 76.065 253.294 75.2774 253.937 74.2487C254.58 73.1878 255.207 71.902 255.818 70.3911C256.429 68.8802 256.991 67.1282 257.506 65.1351L256.445 70.3911C255.641 72.7699 254.757 74.6666 253.793 76.081C252.828 77.4955 251.8 78.5081 250.707 79.1189C249.614 79.7297 248.472 80.0351 247.283 80.0351C245.483 80.0351 244.133 79.5046 243.233 78.4438C242.332 77.383 241.882 75.9364 241.882 74.104C241.882 72.3681 242.172 70.5518 242.75 68.6551C243.361 66.7585 244.165 64.9261 245.161 63.1581C246.19 61.39 247.331 59.7987 248.585 58.3843C249.871 56.9698 251.221 55.8447 252.635 55.0089C254.082 54.1731 255.497 53.7552 256.879 53.7552C257.94 53.7552 258.759 54.1731 259.338 55.0089C259.917 55.8447 260.093 57.1466 259.868 58.9147L259.338 59.204C259.499 58.0467 259.434 57.1466 259.145 56.5037C258.888 55.8608 258.438 55.5393 257.795 55.5393C257.152 55.5393 256.429 55.909 255.625 56.6484C254.854 57.3877 254.082 58.4004 253.311 59.6862C252.539 60.9721 251.816 62.4348 251.141 64.0742C250.498 65.6816 249.983 67.3854 249.598 69.1856C249.212 70.9536 249.019 72.7056 249.019 74.4415C249.019 75.5345 249.131 76.3061 249.357 76.7561C249.582 77.2062 249.919 77.4312 250.369 77.4312ZM260.592 54.4785C261.974 54.4463 263.228 54.382 264.353 54.2856C265.478 54.157 266.555 53.9802 267.584 53.7552L261.267 75.2613C261.17 75.6792 261.09 76.081 261.026 76.4668C260.994 76.8204 261.042 77.1097 261.17 77.3347C261.331 77.5598 261.588 77.6723 261.942 77.6723C262.36 77.6723 262.826 77.4312 263.34 76.949C263.855 76.4346 264.385 75.4059 264.932 73.8629L265.8 71.5483H266.716L265.51 75.0684C265.06 76.3864 264.482 77.399 263.774 78.1063C263.067 78.8135 262.312 79.3118 261.508 79.6011C260.704 79.8904 259.917 80.0351 259.145 80.0351C257.474 80.0351 256.284 79.5368 255.577 78.5402C255.095 77.833 254.87 76.9651 254.902 75.9364C254.966 74.8755 255.191 73.67 255.577 72.3199L260.592 54.4785ZM276.389 79.36H269.59L275.425 58.5289C275.586 58.0789 275.682 57.6771 275.714 57.3234C275.779 56.9377 275.747 56.6484 275.618 56.4555C275.489 56.2305 275.248 56.1179 274.895 56.1179C274.316 56.1179 273.786 56.3912 273.303 56.9377C272.853 57.452 272.355 58.4486 271.809 59.9273L270.892 62.3865H269.976L271.278 58.7218C271.921 56.8895 272.757 55.6036 273.786 54.8642C274.846 54.1249 276.084 53.7552 277.499 53.7552C278.656 53.7552 279.54 53.9641 280.151 54.382C280.761 54.7678 281.163 55.2982 281.356 55.9733C281.581 56.6484 281.662 57.3877 281.597 58.1914C281.565 58.9629 281.453 59.7344 281.26 60.506L276.389 79.36ZM277.933 71.2108C279.186 67.7068 280.344 64.8297 281.404 62.5794C282.497 60.297 283.558 58.5129 284.587 57.227C285.648 55.9411 286.725 55.041 287.818 54.5267C288.911 54.0123 290.084 53.7552 291.338 53.7552C292.881 53.7552 293.99 54.0927 294.665 54.7678C295.34 55.4429 295.677 56.343 295.677 57.4681C295.677 58.5611 295.469 59.7505 295.051 61.0364L290.325 75.2613C290.004 76.1614 289.923 76.7883 290.084 77.1419C290.245 77.4955 290.534 77.6723 290.952 77.6723C291.37 77.6723 291.836 77.4473 292.35 76.9972C292.865 76.515 293.411 75.4702 293.99 73.8629L294.858 71.5483H295.774L294.568 75.0684C294.118 76.4186 293.524 77.4473 292.784 78.1545C292.077 78.8617 291.306 79.3439 290.47 79.6011C289.666 79.8904 288.878 80.0351 288.107 80.0351C287.175 80.0351 286.387 79.8904 285.744 79.6011C285.101 79.3439 284.603 78.9582 284.249 78.4438C283.831 77.8009 283.622 76.9972 283.622 76.0328C283.655 75.0363 283.912 73.8147 284.394 72.3681L288.734 59.3487C288.927 58.8343 289.055 58.3361 289.12 57.8539C289.184 57.3717 289.168 56.9698 289.071 56.6484C288.975 56.3269 288.702 56.1662 288.252 56.1662C287.641 56.1662 286.95 56.568 286.178 57.3717C285.407 58.1432 284.587 59.2362 283.719 60.6506C282.883 62.0329 282.047 63.6563 281.211 65.5208C280.376 67.3854 279.572 69.3784 278.8 71.5001C278.029 73.5897 277.338 75.7435 276.727 77.9616L277.933 71.2108ZM306.312 77.4312C306.826 77.4312 307.389 77.1579 308 76.6114C308.61 76.065 309.237 75.2774 309.88 74.2487C310.523 73.1878 311.15 71.902 311.761 70.3911C312.371 68.8802 312.934 67.1282 313.448 65.1351L312.388 70.3911C311.584 72.7699 310.7 74.6666 309.735 76.081C308.771 77.4955 307.742 78.5081 306.649 79.1189C305.556 79.7297 304.415 80.0351 303.226 80.0351C301.426 80.0351 300.075 79.5046 299.175 78.4438C298.275 77.383 297.825 75.9364 297.825 74.104C297.825 72.3681 298.114 70.5518 298.693 68.6551C299.304 66.7585 300.108 64.9261 301.104 63.1581C302.133 61.39 303.274 59.7987 304.528 58.3843C305.814 56.9698 307.164 55.8447 308.578 55.0089C310.025 54.1731 311.439 53.7552 312.822 53.7552C313.882 53.7552 314.702 54.1731 315.281 55.0089C315.859 55.8447 316.036 57.1466 315.811 58.9147L315.281 59.204C315.442 58.0467 315.377 57.1466 315.088 56.5037C314.831 55.8608 314.381 55.5393 313.738 55.5393C313.095 55.5393 312.371 55.909 311.568 56.6484C310.796 57.3877 310.025 58.4004 309.253 59.6862C308.482 60.9721 307.758 62.4348 307.083 64.0742C306.44 65.6816 305.926 67.3854 305.54 69.1856C305.155 70.9536 304.962 72.7056 304.962 74.4415C304.962 75.5345 305.074 76.3061 305.299 76.7561C305.524 77.2062 305.862 77.4312 306.312 77.4312ZM316.534 54.4785C317.917 54.4463 319.171 54.382 320.296 54.2856C321.421 54.157 322.498 53.9802 323.526 53.7552L317.21 75.2613C317.113 75.6792 317.033 76.081 316.968 76.4668C316.936 76.8204 316.985 77.1097 317.113 77.3347C317.274 77.5598 317.531 77.6723 317.885 77.6723C318.303 77.6723 318.769 77.4312 319.283 76.949C319.797 76.4346 320.328 75.4059 320.874 73.8629L321.742 71.5483H322.658L321.453 75.0684C321.003 76.3864 320.424 77.399 319.717 78.1063C319.01 78.8135 318.254 79.3118 317.451 79.6011C316.647 79.8904 315.859 80.0351 315.088 80.0351C313.416 80.0351 312.227 79.5368 311.52 78.5402C311.037 77.833 310.812 76.9651 310.845 75.9364C310.909 74.8755 311.134 73.67 311.52 72.3199L316.534 54.4785ZM332.284 79.36H325.485L331.368 58.5289C331.593 57.661 331.657 57.0502 331.561 56.6966C331.496 56.3108 331.255 56.1179 330.837 56.1179C330.259 56.1179 329.728 56.4073 329.246 56.9859C328.764 57.5324 328.25 58.5129 327.703 59.9273L326.787 62.3865H325.871L327.173 58.7218C327.655 57.436 328.233 56.4394 328.909 55.7322C329.584 55.025 330.339 54.5267 331.175 54.2374C332.043 53.9159 332.927 53.7552 333.827 53.7552C334.856 53.7552 335.643 53.9641 336.19 54.382C336.736 54.7678 337.106 55.2982 337.299 55.9733C337.492 56.6484 337.556 57.3877 337.492 58.1914C337.46 58.9629 337.347 59.7344 337.154 60.506L332.284 79.36ZM344.628 54.816C343.985 54.816 343.294 55.0089 342.555 55.3946C341.815 55.7804 341.06 56.4716 340.288 57.4681C339.517 58.4647 338.697 59.847 337.829 61.615C336.993 63.3831 336.126 65.6494 335.225 68.414C334.357 71.1465 333.457 74.4576 332.525 78.3474L333.586 71.8377C334.615 68.3015 335.547 65.3762 336.383 63.0616C337.218 60.7471 338.054 58.9147 338.89 57.5645C339.758 56.1822 340.658 55.2018 341.59 54.6231C342.555 54.0445 343.648 53.7552 344.869 53.7552C346.123 53.7552 347.088 54.1249 347.763 54.8642C348.438 55.6036 348.775 56.5359 348.775 57.661C348.775 58.5611 348.566 59.3969 348.148 60.1684C347.763 60.9078 347.216 61.5186 346.509 62.0008C345.834 62.4508 345.062 62.6759 344.194 62.6759C343.262 62.6759 342.539 62.4348 342.024 61.9526C341.51 61.4382 341.253 60.7149 341.253 59.7827C341.253 59.0111 341.43 58.3039 341.783 57.661C342.137 56.9859 342.619 56.4073 343.23 55.9251C343.841 55.4429 344.516 55.1214 345.255 54.9607C345.159 54.9285 345.062 54.8964 344.966 54.8642C344.869 54.8321 344.757 54.816 344.628 54.816ZM355.947 46.3775C356.011 44.9952 356.509 43.9344 357.442 43.195C358.406 42.4556 359.547 42.0859 360.865 42.0859C362.055 42.0859 362.955 42.3752 363.566 42.9539C364.209 43.5004 364.498 44.2719 364.434 45.2684C364.369 46.5222 363.855 47.5509 362.891 48.3545C361.926 49.126 360.769 49.5118 359.419 49.5118C358.294 49.5118 357.409 49.2386 356.767 48.6921C356.156 48.1134 355.883 47.3419 355.947 46.3775ZM354.114 58.5289C354.661 56.9216 354.484 56.1179 353.584 56.1179C353.005 56.1179 352.475 56.4073 351.993 56.9859C351.511 57.5645 351.012 58.545 350.498 59.9273L349.534 62.3865H348.617L349.968 58.7218C350.418 57.436 350.98 56.4394 351.655 55.7322C352.362 55.025 353.134 54.5267 353.97 54.2374C354.838 53.9159 355.738 53.7552 356.67 53.7552C357.795 53.7552 358.679 53.9641 359.322 54.382C359.965 54.7999 360.399 55.3464 360.624 56.0215C360.849 56.6644 360.93 57.3877 360.865 58.1914C360.801 58.9629 360.64 59.7344 360.383 60.506L355.32 75.2613C355.031 76.1292 354.95 76.7561 355.079 77.1419C355.24 77.4955 355.545 77.6723 355.995 77.6723C356.413 77.6723 356.863 77.4312 357.345 76.949C357.86 76.4668 358.422 75.4381 359.033 73.8629L359.901 71.5483H360.817L359.563 75.0684C359.113 76.3864 358.535 77.399 357.827 78.1063C357.12 78.8135 356.349 79.3118 355.513 79.6011C354.709 79.8904 353.889 80.0351 353.054 80.0351C351.671 80.0351 350.61 79.7297 349.871 79.1189C349.164 78.5081 348.778 77.6241 348.714 76.4668C348.65 75.3095 348.875 73.9433 349.389 72.3681L354.114 58.5289ZM371.39 77.4312C371.904 77.4312 372.467 77.1579 373.078 76.6114C373.689 76.065 374.315 75.2774 374.958 74.2487C375.601 73.1878 376.228 71.902 376.839 70.3911C377.45 68.8802 378.012 67.1282 378.527 65.1351L377.466 70.3911C376.662 72.7699 375.778 74.6666 374.814 76.081C373.849 77.4955 372.821 78.5081 371.728 79.1189C370.635 79.7297 369.493 80.0351 368.304 80.0351C366.504 80.0351 365.154 79.5046 364.253 78.4438C363.353 77.383 362.903 75.9364 362.903 74.104C362.903 72.3681 363.193 70.5518 363.771 68.6551C364.382 66.7585 365.186 64.9261 366.182 63.1581C367.211 61.39 368.352 59.7987 369.606 58.3843C370.892 56.9698 372.242 55.8447 373.656 55.0089C375.103 54.1731 376.517 53.7552 377.9 53.7552C378.961 53.7552 379.78 54.1731 380.359 55.0089C380.938 55.8447 381.114 57.1466 380.889 58.9147L380.359 59.204C380.52 58.0467 380.455 57.1466 380.166 56.5037C379.909 55.8608 379.459 55.5393 378.816 55.5393C378.173 55.5393 377.45 55.909 376.646 56.6484C375.874 57.3877 375.103 58.4004 374.331 59.6862C373.56 60.9721 372.837 62.4348 372.162 64.0742C371.519 65.6816 371.004 67.3854 370.619 69.1856C370.233 70.9536 370.04 72.7056 370.04 74.4415C370.04 75.5345 370.152 76.3061 370.377 76.7561C370.602 77.2062 370.94 77.4312 371.39 77.4312ZM381.613 54.4785C382.995 54.4463 384.249 54.382 385.374 54.2856C386.499 54.157 387.576 53.9802 388.605 53.7552L382.288 75.2613C382.191 75.6792 382.111 76.081 382.047 76.4668C382.014 76.8204 382.063 77.1097 382.191 77.3347C382.352 77.5598 382.609 77.6723 382.963 77.6723C383.381 77.6723 383.847 77.4312 384.361 76.949C384.876 76.4346 385.406 75.4059 385.952 73.8629L386.82 71.5483H387.737L386.531 75.0684C386.081 76.3864 385.502 77.399 384.795 78.1063C384.088 78.8135 383.333 79.3118 382.529 79.6011C381.725 79.8904 380.938 80.0351 380.166 80.0351C378.494 80.0351 377.305 79.5368 376.598 78.5402C376.116 77.833 375.891 76.9651 375.923 75.9364C375.987 74.8755 376.212 73.67 376.598 72.3199L381.613 54.4785ZM393.408 78.6849C393.665 78.8135 393.939 78.9099 394.228 78.9742C394.517 79.0064 394.871 79.0224 395.289 79.0224C396.478 79.0224 397.443 78.6688 398.182 77.9616C398.953 77.2222 399.339 76.1935 399.339 74.8755C399.339 73.8147 399.114 72.7378 398.664 71.6448C398.214 70.5197 397.539 69.2981 396.639 67.9801C395.899 66.8228 395.208 65.6977 394.565 64.6047C393.955 63.5117 393.649 62.258 393.649 60.8435C393.649 59.4612 394.003 58.2396 394.71 57.1788C395.417 56.1179 396.414 55.2821 397.7 54.6713C399.018 54.0606 400.593 53.7552 402.425 53.7552C403.615 53.7552 404.756 53.8998 405.849 54.1891C406.974 54.4785 407.906 54.9767 408.646 55.684C409.385 56.3912 409.755 57.4199 409.755 58.77C409.755 59.2522 409.642 59.7827 409.417 60.3613C409.224 60.9399 408.903 61.4221 408.453 61.8079C408.035 62.1615 407.488 62.3383 406.813 62.3383C406.01 62.3383 405.367 62.049 404.884 61.4704C404.402 60.8596 404.161 60.072 404.161 59.1076C404.161 58.2396 404.306 57.4681 404.595 56.793C404.917 56.0858 405.27 55.5232 405.656 55.1053C405.238 54.8481 404.676 54.7196 403.968 54.7196C402.811 54.7196 401.895 55.0732 401.22 55.7804C400.577 56.4876 400.239 57.5003 400.207 58.8183C400.207 59.5576 400.336 60.2649 400.593 60.9399C400.85 61.5829 401.204 62.2419 401.654 62.917C402.104 63.592 402.586 64.3475 403.1 65.1833C404.065 66.7585 404.772 68.1087 405.222 69.2338C405.704 70.3589 405.945 71.5001 405.945 72.6574C405.945 74.0397 405.576 75.2934 404.836 76.4186C404.129 77.5116 403.084 78.3956 401.702 79.0707C400.352 79.7136 398.744 80.0351 396.88 80.0351C395.53 80.0351 394.244 79.8583 393.022 79.5046C391.801 79.151 390.804 78.5724 390.033 77.7687C389.293 76.9329 388.924 75.8239 388.924 74.4415C388.924 73.5414 389.165 72.7378 389.647 72.0305C390.097 71.3233 390.756 70.9697 391.624 70.9697C392.492 70.9697 393.167 71.3394 393.649 72.0788C394.131 72.786 394.373 73.67 394.373 74.7309C394.373 75.5667 394.244 76.3221 393.987 76.9972C393.762 77.6723 393.569 78.2349 393.408 78.6849Z" fill="#E3E16A"/>
<path d="M70.4344 39.49C70.4344 50.94 70.4344 62.4 70.4344 73.85C70.4344 74.26 70.4344 74.67 70.4644 75.08C70.5844 76.22 71.4444 77.08 72.5844 77.24C73.6844 77.39 74.7844 76.83 75.1544 75.79C75.3544 75.25 75.3944 74.62 75.3944 74.03C75.4044 51.07 75.3944 28.11 75.3944 5.13995C75.3944 4.78995 75.3944 4.42996 75.3644 4.07996C75.2244 2.82996 74.1644 1.89996 72.9144 1.89996C71.6544 1.89996 70.5845 2.81995 70.4545 4.06995C70.4145 4.46995 70.4244 4.88999 70.4244 5.29999C70.4244 16.7 70.4244 28.1 70.4244 39.5L70.4344 39.49ZM20.1344 39.5C20.1344 46.81 20.1344 54.12 20.1344 61.43C20.1344 61.76 20.1244 62.09 20.1544 62.41C20.2444 63.54 21.1244 64.5 22.2044 64.64C23.4644 64.81 24.5944 64.21 24.9544 63.08C25.1144 62.57 25.1144 62 25.1144 61.46C25.1144 46.86 25.1144 32.27 25.1144 17.67C25.1144 17.29 25.1144 16.9 25.0644 16.53C24.9244 15.45 24.0144 14.59 22.9344 14.49C21.2544 14.34 20.1344 15.42 20.1344 17.22C20.1344 24.64 20.1344 32.06 20.1344 39.48V39.5ZM105.604 39.65C105.604 32.34 105.604 25.03 105.604 17.72C105.604 17.39 105.614 17.06 105.584 16.74C105.494 15.64 104.644 14.7 103.604 14.53C102.354 14.33 101.214 14.8899 100.814 16.0099C100.634 16.5099 100.624 17.08 100.624 17.62C100.624 32.22 100.624 46.81 100.624 61.41C100.624 61.82 100.624 62.23 100.674 62.63C100.814 63.71 101.734 64.57 102.814 64.66C104.464 64.8 105.604 63.74 105.604 62C105.604 54.55 105.604 47.1 105.604 39.66V39.65ZM80.5044 39.58C80.5044 46.29 80.5044 53 80.5044 59.71C80.5044 60.61 80.4844 61.51 80.5344 62.41C80.5844 63.49 81.4044 64.42 82.4044 64.62C83.5744 64.85 84.7144 64.4 85.1644 63.37C85.3944 62.84 85.4744 62.21 85.4744 61.63C85.4944 46.93 85.4845 32.22 85.4845 17.52C85.4845 17.25 85.4844 16.97 85.4644 16.7C85.3644 15.58 84.4744 14.6399 83.3844 14.5099C82.0944 14.3599 80.9544 15.02 80.6344 16.18C80.5144 16.62 80.5244 17.1 80.5244 17.56C80.5244 24.9 80.5244 32.24 80.5244 39.58H80.5044ZM65.3544 39.58C65.3544 35.24 65.3544 30.9099 65.3544 26.5699C65.3544 23.3499 65.3644 20.13 65.3344 16.91C65.3244 15.68 64.4844 14.71 63.3744 14.53C62.0944 14.32 60.9544 14.9 60.5544 16.08C60.3944 16.55 60.3844 17.1 60.3844 17.61C60.3844 32.23 60.3844 46.85 60.3844 61.48C60.3844 61.83 60.3844 62.19 60.4144 62.54C60.5244 63.65 61.4544 64.56 62.5644 64.66C64.2444 64.82 65.3544 63.75 65.3544 61.93C65.3544 54.48 65.3544 47.04 65.3544 39.59V39.58ZM55.3044 39.58C55.3044 38.63 55.3044 37.67 55.3044 36.72C55.3044 33.53 55.3244 30.34 55.2944 27.15C55.2744 25.35 53.8744 24.22 52.2044 24.6C51.0044 24.88 50.3244 25.86 50.3244 27.39C50.3244 35.51 50.3244 43.6399 50.3244 51.7599C50.3244 51.9999 50.3244 52.25 50.3544 52.49C50.5044 53.65 51.4444 54.52 52.6044 54.61C54.1644 54.72 55.2844 53.63 55.2944 51.92C55.3144 47.8 55.2944 43.6899 55.2944 39.5699L55.3044 39.58ZM35.1844 39.58C35.1844 36.96 35.1844 34.35 35.1844 31.73C35.1844 30.15 35.2144 28.57 35.1644 26.99C35.1144 25.39 33.8644 24.3599 32.3244 24.5699C31.0144 24.7399 30.2044 25.7699 30.2044 27.3199C30.2044 35.4999 30.2044 43.68 30.2044 51.85C30.2044 52.04 30.2044 52.23 30.2244 52.42C30.3644 53.65 31.3444 54.56 32.5744 54.62C34.0944 54.69 35.1744 53.61 35.1844 51.93C35.2044 47.81 35.1844 43.7 35.1844 39.58ZM90.5544 39.58C90.5544 41.98 90.5544 44.38 90.5544 46.78C90.5544 48.58 90.5244 50.38 90.5744 52.18C90.6144 53.72 91.7644 54.73 93.2444 54.63C94.6744 54.53 95.5344 53.47 95.5444 51.78C95.5444 43.66 95.5444 35.53 95.5444 27.41C95.5444 27.19 95.5444 26.9699 95.5244 26.7599C95.3844 25.4599 94.3245 24.53 93.0145 24.55C91.5545 24.57 90.5744 25.61 90.5644 27.24C90.5444 31.36 90.5644 35.47 90.5644 39.59L90.5544 39.58ZM10.0644 39.5C10.0644 42.36 10.0644 45.22 10.0644 48.09C10.0644 49.48 10.0344 50.8699 10.0844 52.2599C10.1344 53.6199 11.1944 54.61 12.5244 54.63C13.8744 54.65 14.9044 53.72 15.0344 52.34C15.0644 52.04 15.0644 51.74 15.0644 51.44C15.0644 43.53 15.0644 35.63 15.0644 27.72C15.0644 27.37 15.0644 27.01 15.0144 26.66C14.8544 25.45 13.9044 24.59 12.6844 24.54C11.1544 24.47 10.0744 25.56 10.0744 27.23C10.0644 31.32 10.0744 35.41 10.0744 39.5H10.0644ZM110.664 39.5C110.664 43.13 110.664 46.75 110.664 50.38C110.664 51.06 110.644 51.75 110.704 52.42C110.834 53.77 111.934 54.69 113.284 54.63C114.754 54.57 115.664 53.49 115.664 51.78C115.664 43.66 115.664 35.53 115.664 27.41C115.664 27.17 115.664 26.92 115.624 26.68C115.444 25.42 114.394 24.54 113.124 24.55C111.644 24.57 110.674 25.6299 110.674 27.3199C110.654 31.3799 110.674 35.4399 110.674 39.5099L110.664 39.5ZM0.00444444 39.59C0.00444444 41.2 0.00444444 42.8 0.00444444 44.41C0.00444444 45.95 1.05444 47.08 2.47444 47.1C3.83444 47.12 4.95444 46.11 4.97444 44.63C5.02444 41.25 5.02444 37.88 4.97444 34.5C4.95444 33.02 3.81444 32.01 2.45444 32.05C1.05444 32.09 0.0144444 33.2 0.00444444 34.68C-0.00555556 36.31 0.00444444 37.95 0.00444444 39.58V39.59ZM125.734 39.58C125.734 37.95 125.734 36.31 125.734 34.68C125.724 33.2 124.664 32.09 123.274 32.06C121.914 32.03 120.784 33.05 120.764 34.52C120.714 37.9 120.714 41.27 120.764 44.65C120.784 46.12 121.924 47.14 123.274 47.11C124.664 47.07 125.724 45.96 125.734 44.49C125.744 42.86 125.734 41.22 125.734 39.59V39.58ZM40.2644 39.58C40.2644 41.22 40.2544 42.85 40.2644 44.49C40.2844 45.99 41.3344 47.09 42.7244 47.1C44.1244 47.11 45.2044 46.03 45.2144 44.52C45.2344 41.22 45.2344 37.92 45.2144 34.62C45.2044 33.11 44.1144 32.03 42.7244 32.05C41.3244 32.07 40.2744 33.16 40.2644 34.67C40.2444 36.31 40.2644 37.94 40.2644 39.58Z" fill="#E3E16A"/>
<path d="M70.4344 39.49C70.4344 28.09 70.4344 16.69 70.4344 5.29C70.4344 4.88 70.4344 4.47002 70.4644 4.06002C70.6044 2.81002 71.6644 1.87997 72.9244 1.88997C74.1844 1.88997 75.2445 2.82997 75.3745 4.06997C75.4145 4.41997 75.4044 4.78002 75.4044 5.13002C75.4044 28.09 75.4044 51.05 75.4044 74.02C75.4044 74.61 75.3644 75.23 75.1644 75.78C74.7844 76.82 73.6845 77.38 72.5945 77.23C71.4445 77.07 70.5844 76.21 70.4744 75.07C70.4344 74.66 70.4444 74.25 70.4444 73.84C70.4444 62.39 70.4444 50.93 70.4444 39.48L70.4344 39.49Z" fill="#E3E16A"/>
<path d="M20.1344 39.5C20.1344 32.08 20.1344 24.66 20.1344 17.24C20.1344 15.43 21.2544 14.3499 22.9344 14.5099C24.0244 14.6099 24.9344 15.47 25.0644 16.55C25.1144 16.93 25.1144 17.31 25.1144 17.69C25.1144 32.29 25.1144 46.88 25.1144 61.48C25.1144 62.02 25.1144 62.59 24.9544 63.1C24.5944 64.23 23.4644 64.82 22.2044 64.66C21.1244 64.52 20.2444 63.56 20.1544 62.43C20.1244 62.1 20.1344 61.78 20.1344 61.45C20.1344 54.14 20.1344 46.83 20.1344 39.52V39.5Z" fill="#E3E16A"/>
<path d="M105.604 39.65C105.604 47.1 105.604 54.55 105.604 61.99C105.604 63.73 104.464 64.79 102.814 64.65C101.734 64.56 100.814 63.7 100.674 62.62C100.624 62.22 100.624 61.8 100.624 61.4C100.624 46.8 100.624 32.21 100.624 17.61C100.624 17.07 100.644 16.5 100.814 16C101.214 14.88 102.354 14.32 103.604 14.52C104.644 14.69 105.494 15.63 105.584 16.73C105.614 17.06 105.604 17.38 105.604 17.71C105.604 25.02 105.604 32.33 105.604 39.64V39.65Z" fill="#E3E16A"/>
<path d="M80.5044 39.58C80.5044 32.24 80.5044 24.9 80.5044 17.56C80.5044 17.1 80.5044 16.62 80.6144 16.18C80.9344 15.02 82.0744 14.35 83.3644 14.51C84.4544 14.64 85.3544 15.58 85.4444 16.7C85.4644 16.97 85.4644 17.25 85.4644 17.52C85.4644 32.22 85.4645 46.93 85.4545 61.63C85.4545 62.21 85.3744 62.84 85.1444 63.37C84.6944 64.39 83.5544 64.85 82.3844 64.62C81.3844 64.42 80.5744 63.49 80.5144 62.41C80.4744 61.51 80.4844 60.61 80.4844 59.71C80.4844 53 80.4844 46.29 80.4844 39.58H80.5044Z" fill="#E3E16A"/>
<path d="M65.3545 39.58C65.3545 47.03 65.3545 54.47 65.3545 61.92C65.3545 63.75 64.2445 64.81 62.5645 64.65C61.4545 64.55 60.5245 63.64 60.4145 62.53C60.3845 62.18 60.3845 61.82 60.3845 61.47C60.3845 46.85 60.3845 32.23 60.3845 17.6C60.3845 17.09 60.3845 16.55 60.5545 16.07C60.9545 14.89 62.0945 14.31 63.3745 14.52C64.4845 14.7 65.3245 15.67 65.3345 16.9C65.3645 20.12 65.3445 23.34 65.3545 26.56C65.3545 30.9 65.3545 35.23 65.3545 39.57V39.58Z" fill="#E3E16A"/>
<path d="M55.2945 39.58C55.2945 43.7 55.3045 47.81 55.2945 51.93C55.2945 53.64 54.1645 54.73 52.6045 54.62C51.4445 54.53 50.5045 53.66 50.3545 52.5C50.3245 52.26 50.3245 52.01 50.3245 51.77C50.3245 43.65 50.3245 35.52 50.3245 27.4C50.3245 25.87 51.0045 24.89 52.2045 24.61C53.8745 24.23 55.2745 25.35 55.2945 27.16C55.3245 30.35 55.3045 33.54 55.3045 36.73C55.3045 37.68 55.3045 38.64 55.3045 39.59L55.2945 39.58Z" fill="#E3E16A"/>
<path d="M35.1745 39.5799C35.1745 43.6999 35.1845 47.81 35.1745 51.93C35.1745 53.61 34.0845 54.69 32.5645 54.62C31.3345 54.56 30.3545 53.65 30.2145 52.42C30.1945 52.23 30.1945 52.04 30.1945 51.85C30.1945 43.67 30.1945 35.4899 30.1945 27.3199C30.1945 25.7699 31.0045 24.7399 32.3145 24.5699C33.8545 24.3699 35.1045 25.39 35.1545 26.99C35.2045 28.57 35.1745 30.15 35.1745 31.73C35.1745 34.35 35.1745 36.9599 35.1745 39.5799Z" fill="#E3E16A"/>
<path d="M90.5544 39.58C90.5544 35.46 90.5444 31.35 90.5544 27.23C90.5544 25.61 91.5444 24.56 93.0044 24.54C94.3144 24.52 95.3645 25.45 95.5145 26.75C95.5345 26.97 95.5344 27.19 95.5344 27.4C95.5344 35.52 95.5344 43.65 95.5344 51.77C95.5344 53.46 94.6645 54.51 93.2345 54.62C91.7545 54.73 90.6044 53.71 90.5644 52.17C90.5144 50.37 90.5445 48.57 90.5445 46.77C90.5445 44.37 90.5445 41.97 90.5445 39.57L90.5544 39.58Z" fill="#E3E16A"/>
<path d="M10.0745 39.5C10.0745 35.41 10.0745 31.32 10.0745 27.23C10.0745 25.56 11.1645 24.47 12.6845 24.54C13.9045 24.59 14.8545 25.45 15.0145 26.66C15.0645 27.01 15.0645 27.37 15.0645 27.72C15.0645 35.63 15.0645 43.53 15.0645 51.44C15.0645 51.74 15.0645 52.04 15.0345 52.34C14.8945 53.72 13.8645 54.65 12.5245 54.63C11.1945 54.61 10.1345 53.63 10.0845 52.26C10.0345 50.87 10.0645 49.48 10.0645 48.09C10.0645 45.23 10.0645 42.37 10.0645 39.5H10.0745Z" fill="#E3E16A"/>
<path d="M110.664 39.5C110.664 35.44 110.664 31.38 110.664 27.31C110.664 25.62 111.634 24.56 113.114 24.54C114.384 24.52 115.434 25.4 115.614 26.67C115.654 26.91 115.654 27.16 115.654 27.4C115.654 35.52 115.654 43.65 115.654 51.77C115.654 53.48 114.744 54.56 113.274 54.62C111.924 54.68 110.834 53.77 110.694 52.41C110.624 51.73 110.654 51.05 110.654 50.37C110.654 46.74 110.654 43.12 110.654 39.49L110.664 39.5Z" fill="#E3E16A"/>
<path d="M0.00445557 39.59C0.00445557 37.96 0.00445557 36.32 0.00445557 34.69C0.00445557 33.21 1.05445 32.1 2.45445 32.06C3.82445 32.02 4.95445 33.0299 4.97445 34.5099C5.03445 37.8899 5.03445 41.2599 4.97445 44.6399C4.95445 46.1199 3.83445 47.14 2.47445 47.11C1.05445 47.08 0.00445557 45.95 0.00445557 44.42C0.00445557 42.81 0.00445557 41.21 0.00445557 39.6V39.59Z" fill="#E3E16A"/>
<path d="M125.734 39.5799C125.734 41.2099 125.734 42.85 125.734 44.48C125.724 45.95 124.664 47.0699 123.274 47.0999C121.924 47.1299 120.784 46.1099 120.764 44.6399C120.714 41.2599 120.714 37.8899 120.764 34.5099C120.784 33.0399 121.914 32.02 123.274 32.05C124.674 32.08 125.724 33.19 125.734 34.67C125.744 36.3 125.734 37.9399 125.734 39.5699V39.5799Z" fill="#E3E16A"/>
<path d="M40.2644 39.58C40.2644 37.94 40.2544 36.31 40.2644 34.67C40.2844 33.17 41.3244 32.07 42.7244 32.05C44.1244 32.03 45.2044 33.11 45.2144 34.62C45.2344 37.92 45.2444 41.22 45.2144 44.52C45.2044 46.03 44.1144 47.11 42.7244 47.1C41.3344 47.09 40.2744 45.99 40.2644 44.49C40.2444 42.85 40.2644 41.22 40.2644 39.58Z" fill="#E3E16A"/>
<path d="M150.64 28V7.63H155.354V24.1588H165.568V28H150.64ZM165.667 28L174.746 7.63H179.402L188.51 28H183.563L176.114 10.0162H177.976L170.498 28H165.667ZM170.207 23.635L171.458 20.0557H181.934L183.214 23.635H170.207ZM204.976 28L196.188 7.63H201.28L208.963 25.672H205.965L213.764 7.63H218.449L209.632 28H204.976ZM229.817 28.3492C228.207 28.3492 226.713 28.0873 225.335 27.5635C223.977 27.0397 222.794 26.3025 221.785 25.3519C220.796 24.4013 220.02 23.2858 219.457 22.0054C218.914 20.725 218.642 19.3282 218.642 17.815C218.642 16.3018 218.914 14.905 219.457 13.6246C220.02 12.3442 220.805 11.2287 221.814 10.2781C222.823 9.3275 224.006 8.5903 225.364 8.0665C226.722 7.5427 228.197 7.2808 229.788 7.2808C231.398 7.2808 232.872 7.5427 234.211 8.0665C235.569 8.5903 236.743 9.3275 237.732 10.2781C238.741 11.2287 239.526 12.3442 240.089 13.6246C240.652 14.8856 240.933 16.2824 240.933 17.815C240.933 19.3282 240.652 20.7347 240.089 22.0345C239.526 23.3149 238.741 24.4304 237.732 25.381C236.743 26.3122 235.569 27.0397 234.211 27.5635C232.872 28.0873 231.408 28.3492 229.817 28.3492ZM229.788 24.3334C230.699 24.3334 231.534 24.1782 232.29 23.8678C233.066 23.5574 233.745 23.1112 234.327 22.5292C234.909 21.9472 235.355 21.2585 235.666 20.4631C235.996 19.6677 236.161 18.785 236.161 17.815C236.161 16.845 235.996 15.9623 235.666 15.1669C235.355 14.3715 234.909 13.6828 234.327 13.1008C233.765 12.5188 233.095 12.0726 232.319 11.7622C231.543 11.4518 230.699 11.2966 229.788 11.2966C228.876 11.2966 228.032 11.4518 227.256 11.7622C226.499 12.0726 225.83 12.5188 225.248 13.1008C224.666 13.6828 224.21 14.3715 223.88 15.1669C223.57 15.9623 223.415 16.845 223.415 17.815C223.415 18.7656 223.57 19.6483 223.88 20.4631C224.21 21.2585 224.656 21.9472 225.219 22.5292C225.801 23.1112 226.48 23.5574 227.256 23.8678C228.032 24.1782 228.876 24.3334 229.788 24.3334ZM242.967 28V24.9445L255.568 9.7543L256.15 11.4712H243.2V7.63H260.34V10.6855L247.769 25.8757L247.187 24.1588H260.777V28H242.967ZM272.041 28V7.63H275.941L287.959 22.2964H286.067V7.63H290.723V28H286.853L274.806 13.3336H276.697V28H272.041ZM305.437 28.3492C303.827 28.3492 302.333 28.0873 300.956 27.5635C299.598 27.0397 298.414 26.3025 297.405 25.3519C296.416 24.4013 295.64 23.2858 295.077 22.0054C294.534 20.725 294.263 19.3282 294.263 17.815C294.263 16.3018 294.534 14.905 295.077 13.6246C295.64 12.3442 296.426 11.2287 297.434 10.2781C298.443 9.3275 299.627 8.5903 300.985 8.0665C302.343 7.5427 303.817 7.2808 305.408 7.2808C307.018 7.2808 308.492 7.5427 309.831 8.0665C311.189 8.5903 312.363 9.3275 313.352 10.2781C314.361 11.2287 315.147 12.3442 315.709 13.6246C316.272 14.8856 316.553 16.2824 316.553 17.815C316.553 19.3282 316.272 20.7347 315.709 22.0345C315.147 23.3149 314.361 24.4304 313.352 25.381C312.363 26.3122 311.189 27.0397 309.831 27.5635C308.492 28.0873 307.028 28.3492 305.437 28.3492ZM305.408 24.3334C306.32 24.3334 307.154 24.1782 307.91 23.8678C308.686 23.5574 309.365 23.1112 309.947 22.5292C310.529 21.9472 310.976 21.2585 311.286 20.4631C311.616 19.6677 311.781 18.785 311.781 17.815C311.781 16.845 311.616 15.9623 311.286 15.1669C310.976 14.3715 310.529 13.6828 309.947 13.1008C309.385 12.5188 308.716 12.0726 307.94 11.7622C307.164 11.4518 306.32 11.2966 305.408 11.2966C304.496 11.2966 303.652 11.4518 302.876 11.7622C302.12 12.0726 301.45 12.5188 300.868 13.1008C300.286 13.6828 299.83 14.3715 299.501 15.1669C299.19 15.9623 299.035 16.845 299.035 17.815C299.035 18.7656 299.19 19.6483 299.501 20.4631C299.83 21.2585 300.277 21.9472 300.839 22.5292C301.421 23.1112 302.1 23.5574 302.876 23.8678C303.652 24.1782 304.496 24.3334 305.408 24.3334ZM302.76 5.9713L306.688 1.7809H311.577L306.31 5.9713H302.76ZM320.096 28V7.63H323.995L332.667 22.0054H330.601L339.127 7.63H342.998L343.056 28H338.633L338.604 14.4103H339.418L332.609 25.8466H330.485L323.53 14.4103H324.519V28H320.096ZM345.212 28L354.291 7.63H358.947L368.055 28H363.108L355.659 10.0162H357.521L350.042 28H345.212ZM349.751 23.635L351.003 20.0557H361.479L362.759 23.635H349.751ZM370.169 28V7.63H379.422C381.634 7.63 383.584 8.0568 385.271 8.9104C386.959 9.7446 388.278 10.9183 389.229 12.4315C390.18 13.9447 390.655 15.7392 390.655 17.815C390.655 19.8714 390.18 21.6659 389.229 23.1985C388.278 24.7117 386.959 25.8951 385.271 26.7487C383.584 27.5829 381.634 28 379.422 28H370.169ZM374.883 24.1297H379.19C380.548 24.1297 381.721 23.8775 382.711 23.3731C383.719 22.8493 384.495 22.1121 385.039 21.1615C385.601 20.2109 385.883 19.0954 385.883 17.815C385.883 16.5152 385.601 15.3997 385.039 14.4685C384.495 13.5179 383.719 12.7904 382.711 12.286C381.721 11.7622 380.548 11.5003 379.19 11.5003H374.883V24.1297ZM391.249 28L400.328 7.63H404.984L414.092 28H409.145L401.696 10.0162H403.558L396.079 28H391.249ZM395.788 23.635L397.04 20.0557H407.516L408.796 23.635H395.788Z" fill="#E3E16A"/>
</svg>
