<svg width="36" height="48" viewBox="0 0 36 48" fill="none" xmlns="http://www.w3.org/2000/svg">
<path d="M14.9366 29.6387C11.5866 29.4387 8.22662 29.2687 4.87662 29.0387C2.58662 28.8787 1.03662 27.4387 0.586623 25.1787C0.116623 22.8487 0.0266216 20.4987 0.00662164 18.1287C-0.0233784 15.4487 0.0366296 12.7787 0.43663 10.1187C0.60663 8.9887 0.856631 7.8887 1.65663 6.9787C2.46663 6.0687 3.47662 5.5587 4.64662 5.4687C7.32662 5.2587 10.0166 5.0687 12.7166 4.9887C15.7266 4.8987 18.7366 4.8687 21.7466 4.9387C24.6366 5.0087 27.5266 5.2287 30.4166 5.4387C32.7966 5.6087 34.3766 7.1487 34.7566 9.4987C35.3066 12.8987 35.4566 16.3287 35.2566 19.7587C35.1466 21.6987 34.8766 23.6387 34.5866 25.5687C34.3166 27.3987 32.5666 28.8787 30.4966 29.0087C27.6066 29.1987 24.7166 29.3687 21.8166 29.4687C19.5266 29.5387 17.2366 29.4787 14.9466 29.4787C14.9466 29.5287 14.9466 29.5687 14.9466 29.6187L14.9366 29.6387ZM14.1566 22.4587C14.4066 22.3487 14.5966 22.2887 14.7566 22.1987C17.3866 20.6787 20.0266 19.1487 22.6566 17.6287C23.2366 17.2987 23.2266 17.1587 22.6566 16.8287C20.0566 15.3287 17.4466 13.8287 14.8466 12.3287C14.1766 11.9487 14.0666 11.9987 14.0666 12.7787C14.0666 15.7687 14.0566 18.7587 14.0666 21.7487C14.0666 21.9587 14.1266 22.1687 14.1666 22.4687L14.1566 22.4587Z" fill="#2657E8"/>
<path d="M2.8 45.7387V47.4487H1.90001V45.7587L0 42.6087H0.960007L2.38 44.9687L3.81 42.6087H4.69L2.8 45.7387Z" fill="#2657E8"/>
<path d="M4.73001 45.0287C4.73001 43.5987 5.84001 42.5387 7.34001 42.5387C8.84001 42.5387 9.95001 43.5887 9.95001 45.0287C9.95001 46.4687 8.84001 47.5187 7.34001 47.5187C5.84001 47.5187 4.73001 46.4587 4.73001 45.0287ZM9.04001 45.0287C9.04001 44.0387 8.31001 43.3287 7.34001 43.3287C6.37001 43.3287 5.64 44.0387 5.64 45.0287C5.64 46.0187 6.37001 46.7287 7.34001 46.7287C8.31001 46.7287 9.04001 46.0187 9.04001 45.0287Z" fill="#2657E8"/>
<path d="M10.86 45.3387V42.6087H11.76V45.3087C11.76 46.3087 12.21 46.7287 12.99 46.7287C13.77 46.7287 14.21 46.2987 14.21 45.3087V42.6087H15.09V45.3387C15.09 46.7487 14.29 47.5187 12.97 47.5187C11.65 47.5187 10.85 46.7487 10.85 45.3387H10.86Z" fill="#2657E8"/>
<path d="M17.25 43.3687H15.65V42.6087H19.76V43.3687H18.16V47.4487H17.26V43.3687H17.25Z" fill="#2657E8"/>
<path d="M20.29 45.3387V42.6087H21.19V45.3087C21.19 46.3087 21.64 46.7287 22.42 46.7287C23.2 46.7287 23.64 46.2987 23.64 45.3087V42.6087H24.52V45.3387C24.52 46.7487 23.72 47.5187 22.4 47.5187C21.08 47.5187 20.28 46.7487 20.28 45.3387H20.29Z" fill="#2657E8"/>
<path d="M30.09 46.1287C30.09 46.9587 29.44 47.4387 28.2 47.4387H25.79V42.5987H28.06C29.22 42.5987 29.84 43.0887 29.84 43.8587C29.84 44.3587 29.59 44.7187 29.22 44.9187C29.74 45.0887 30.09 45.4887 30.09 46.1187V46.1287ZM26.69 43.3087V44.6387H27.96C28.58 44.6387 28.93 44.4187 28.93 43.9787C28.93 43.5387 28.58 43.3087 27.96 43.3087H26.69ZM29.18 46.0387C29.18 45.5587 28.81 45.3387 28.14 45.3387H26.69V46.7387H28.14C28.82 46.7387 29.18 46.5287 29.18 46.0387Z" fill="#2657E8"/>
<path d="M34.68 46.6887V47.4387H31.05V42.5987H34.58V43.3487H31.95V44.6087H34.29V45.3487H31.95V46.6787H34.68V46.6887Z" fill="#2657E8"/>
</svg>
